<svg width="16" height="16" viewBox="0 0 16 16" fill="none" xmlns="http://www.w3.org/2000/svg">
<rect width="16" height="16" fill="white"/>
<path d="M5.26316 7.85753C5.5936 8.0353 5.96794 8.12842 6.34873 8.1276V10.1701C5.19537 10.1701 4.08926 9.73974 3.27371 8.97365C2.45817 8.20755 2 7.16849 2 6.08507V2C2.33776 1.99997 2.67089 2.07386 2.97297 2.21581C3.27504 2.35775 3.53776 2.56385 3.7403 2.81777C4.0228 3.17088 4.17518 3.60082 4.17436 4.04253C4.75104 4.04253 5.3041 4.25773 5.71187 4.64078C6.11964 5.02383 6.34873 5.54335 6.34873 6.08507H4.17436C4.17386 6.44436 4.27425 6.79742 4.46542 7.10862C4.65658 7.41983 4.93175 7.67815 5.26316 7.85753Z" fill="#2374EE"/>
<path d="M13.9935 11.9581C13.9247 10.9205 13.4373 9.94663 12.6306 9.23485C11.824 8.52307 10.7588 8.12697 9.65205 8.12725V7.85264C9.65141 7.38355 9.45259 6.93388 9.09925 6.60239C8.74592 6.27091 8.26697 6.08472 7.7676 6.08472H7.47607V10.1698C7.47607 10.7115 7.70516 11.231 8.11293 11.6141C8.5207 11.9971 9.07376 12.2123 9.65044 12.2123V10.1698C9.93598 10.1698 10.2187 10.2226 10.4825 10.3253C10.7463 10.4279 10.986 10.5784 11.1879 10.768C11.3899 10.9577 11.55 11.1829 11.6593 11.4307C11.7686 11.6785 11.8269 11.9488 11.8269 12.217L11.8314 12.2685C11.8975 12.7621 12.1643 13.16 12.5616 13.4892C12.9588 13.8183 13.4703 13.9999 14 13.9999L13.9935 11.9651V11.9581Z" fill="#2374EE"/>
</svg>
