<svg width="427" height="309" viewBox="0 0 427 309" fill="none" xmlns="http://www.w3.org/2000/svg">
<g clip-path="url(#clip0_2791_11485)">
<path d="M366.649 53.873C366.649 53.873 343.839 8.23887 293.479 1.47893C243.118 -5.28101 207.961 27.676 170.9 44.5758C151.499 53.429 129.333 50.0128 108.726 54.2808C42.8541 67.9638 18.0319 153.795 45.4742 202.61C69.2266 244.864 111.038 266.829 174.707 271.904C238.377 276.978 283.026 282.886 340.041 241.484C397.056 200.082 393.257 113.879 366.649 53.873Z" fill="#2374EE"/>
<path opacity="0.7" d="M366.649 53.873C366.649 53.873 343.839 8.23887 293.479 1.47893C243.118 -5.28101 207.961 27.676 170.9 44.5758C151.499 53.429 129.333 50.0128 108.726 54.2808C42.8541 67.9638 18.0319 153.795 45.4742 202.61C69.2266 244.864 111.038 266.829 174.707 271.904C238.377 276.978 283.026 282.886 340.041 241.484C397.056 200.082 393.257 113.879 366.649 53.873Z" fill="white"/>
<path d="M376.105 70.7695H136.903V173.338H376.105V70.7695Z" fill="white" stroke="#263238" stroke-linecap="round" stroke-linejoin="round"/>
<path d="M382.614 67.8789H130.403V72.2103H382.614V67.8789Z" fill="white" stroke="#263238" stroke-linecap="round" stroke-linejoin="round"/>
<path d="M376.105 169.723H136.903V173.338H376.105V169.723Z" fill="#263238" stroke="#263238" stroke-linecap="round" stroke-linejoin="round"/>
<path d="M189.206 108.362C190.733 99.4282 184.726 90.948 175.788 89.421C166.85 87.8939 158.366 93.8982 156.839 102.832C155.311 111.766 161.318 120.246 170.256 121.773C179.194 123.3 187.678 117.296 189.206 108.362Z" stroke="#263238" stroke-miterlimit="10"/>
<path d="M172.722 84.418V130.967" stroke="#263238" stroke-miterlimit="10"/>
<path d="M151.227 105.902H193.619" stroke="#263238" stroke-miterlimit="10"/>
<path d="M239.818 109.887H282.21" stroke="#263238" stroke-miterlimit="10"/>
<path d="M260.715 87.8125V134.362" stroke="#263238" stroke-miterlimit="10"/>
<path d="M245.194 93.7773L251.631 98.7793C254.417 100.946 257.836 102.142 261.366 102.183C264.895 102.224 268.341 101.108 271.177 99.0059L277.441 94.3754" stroke="#263238" stroke-miterlimit="10"/>
<path d="M277.414 123.805L270.977 118.803C268.189 116.638 264.768 115.444 261.238 115.403C257.707 115.363 254.26 116.477 251.422 118.577L245.167 123.207" stroke="#263238" stroke-miterlimit="10"/>
<path d="M336.768 87.3594V126.442" stroke="#263238" stroke-miterlimit="10"/>
<path d="M315.762 107.188H355.453" stroke="#263238" stroke-miterlimit="10"/>
<path d="M318.31 105.629V108.8" stroke="#263238" stroke-miterlimit="10"/>
<path d="M320.613 105.629V108.8" stroke="#263238" stroke-miterlimit="10"/>
<path d="M322.924 105.629V108.8" stroke="#263238" stroke-miterlimit="10"/>
<path d="M325.227 105.629V108.8" stroke="#263238" stroke-miterlimit="10"/>
<path d="M327.539 105.629V108.8" stroke="#263238" stroke-miterlimit="10"/>
<path d="M329.842 105.629V108.8" stroke="#263238" stroke-miterlimit="10"/>
<path d="M332.144 105.629V108.8" stroke="#263238" stroke-miterlimit="10"/>
<path d="M334.456 105.629V108.8" stroke="#263238" stroke-miterlimit="10"/>
<path d="M339.062 105.629V108.8" stroke="#263238" stroke-miterlimit="10"/>
<path d="M341.373 105.629V108.8" stroke="#263238" stroke-miterlimit="10"/>
<path d="M343.676 105.629V108.8" stroke="#263238" stroke-miterlimit="10"/>
<path d="M345.988 105.629V108.8" stroke="#263238" stroke-miterlimit="10"/>
<path d="M348.291 105.629V108.8" stroke="#263238" stroke-miterlimit="10"/>
<path d="M350.593 105.629V108.8" stroke="#263238" stroke-miterlimit="10"/>
<path d="M352.905 105.629V108.8" stroke="#263238" stroke-miterlimit="10"/>
<path d="M335.181 124.504H338.354" stroke="#263238" stroke-miterlimit="10"/>
<path d="M335.181 122.195H338.354" stroke="#263238" stroke-miterlimit="10"/>
<path d="M335.181 119.891H338.354" stroke="#263238" stroke-miterlimit="10"/>
<path d="M335.181 117.582H338.354" stroke="#263238" stroke-miterlimit="10"/>
<path d="M335.181 115.281H338.354" stroke="#263238" stroke-miterlimit="10"/>
<path d="M335.181 112.977H338.354" stroke="#263238" stroke-miterlimit="10"/>
<path d="M335.181 110.668H338.354" stroke="#263238" stroke-miterlimit="10"/>
<path d="M335.181 103.754H338.354" stroke="#263238" stroke-miterlimit="10"/>
<path d="M335.181 101.453H338.354" stroke="#263238" stroke-miterlimit="10"/>
<path d="M335.181 99.1406H338.354" stroke="#263238" stroke-miterlimit="10"/>
<path d="M335.181 96.8398H338.354" stroke="#263238" stroke-miterlimit="10"/>
<path d="M335.181 94.5391H338.354" stroke="#263238" stroke-miterlimit="10"/>
<path d="M335.181 92.2266H338.354" stroke="#263238" stroke-miterlimit="10"/>
<path d="M335.181 89.9258H338.354" stroke="#263238" stroke-miterlimit="10"/>
<path d="M154.101 140.453H190.31" stroke="#263238" stroke-miterlimit="10"/>
<path d="M154.101 144.91H190.31" stroke="#263238" stroke-miterlimit="10"/>
<path d="M154.101 149.371H190.31" stroke="#263238" stroke-miterlimit="10"/>
<path d="M154.101 153.836H190.31" stroke="#263238" stroke-miterlimit="10"/>
<path d="M245.856 140.453H282.065" stroke="#263238" stroke-miterlimit="10"/>
<path d="M245.856 144.91H282.065" stroke="#263238" stroke-miterlimit="10"/>
<path d="M245.856 149.371H282.065" stroke="#263238" stroke-miterlimit="10"/>
<path d="M245.856 153.836H282.065" stroke="#263238" stroke-miterlimit="10"/>
<path d="M320.749 140.453H356.957" stroke="#263238" stroke-miterlimit="10"/>
<path d="M320.749 144.91H356.957" stroke="#263238" stroke-miterlimit="10"/>
<path d="M320.749 149.371H356.957" stroke="#263238" stroke-miterlimit="10"/>
<path d="M320.749 153.836H356.957" stroke="#263238" stroke-miterlimit="10"/>
<path d="M199.24 116.656H235.439" stroke="#263238" stroke-miterlimit="10"/>
<path d="M199.24 121.117H235.439" stroke="#263238" stroke-miterlimit="10"/>
<path d="M199.24 125.574H235.439" stroke="#263238" stroke-miterlimit="10"/>
<path d="M199.24 130.043H235.439" stroke="#263238" stroke-miterlimit="10"/>
<path d="M280.578 83.4375H316.778" stroke="#263238" stroke-miterlimit="10"/>
<path d="M280.578 87.9062H316.778" stroke="#263238" stroke-miterlimit="10"/>
<path d="M280.578 92.3633H316.778" stroke="#263238" stroke-miterlimit="10"/>
<path d="M280.578 96.8203H316.778" stroke="#263238" stroke-miterlimit="10"/>
<path d="M72.1277 173.078H25.4297V212.288H72.1277V173.078Z" fill="#263238" stroke="#263238" stroke-linecap="round" stroke-linejoin="round"/>
<path d="M100.467 217.27H53.7694V219.761H100.467V217.27Z" fill="#263238" stroke="#263238" stroke-linecap="round" stroke-linejoin="round"/>
<path d="M51.9019 201.395H42.8723V219.445H51.9019V201.395Z" fill="#707070" stroke="#263238" stroke-linecap="round" stroke-linejoin="round"/>
<path d="M144.681 223.324H20.1443V306.138H144.681V223.324Z" fill="#707070" stroke="#263238" stroke-linecap="round" stroke-linejoin="round"/>
<path d="M22.184 223.922H17.9866V308.095H22.184V223.922Z" fill="#707070" stroke="#263238" stroke-linecap="round" stroke-linejoin="round"/>
<path d="M146.377 223.922H142.179V308.095H146.377V223.922Z" fill="#707070" stroke="#263238" stroke-linecap="round" stroke-linejoin="round"/>
<path d="M152.279 218.902H14.4781V226.813H152.279V218.902Z" fill="#707070" stroke="#263238" stroke-linecap="round" stroke-linejoin="round"/>
<path d="M214.533 142.321C214.533 142.321 209.529 145.429 207.906 149.489C206.284 153.548 199.52 174.526 197.762 177.235C196.003 179.945 196.003 184.131 198.034 186.433C200.064 188.735 203.473 190.212 206.284 187.511C209.094 184.811 209.91 179.401 212.63 173.013C215.349 166.624 217.643 148.646 218.976 144.994C219.787 142.814 220.332 140.545 220.598 138.234L214.533 142.321Z" fill="#A1AAE1" stroke="#263238" stroke-linecap="round" stroke-linejoin="round"/>
<path d="M255.393 195.078C255.393 195.078 256.2 205.834 255.792 211.308C255.384 216.781 251.74 251.305 251.74 251.305L246.463 297.882H238.349L232.457 229.195L224.551 297.683H216.229C216.229 297.683 211.36 254.549 209.937 244.219C209.085 237.759 208.882 231.229 209.33 224.728C209.33 224.121 207.517 210.329 207.517 206.478C207.544 203.854 207.726 201.233 208.06 198.63L207.725 197.144C207.725 197.144 222.738 201.204 233.109 198.766C243.481 196.329 253.598 193.094 253.598 193.094L255.393 195.078Z" fill="#263238" stroke="#263238" stroke-linecap="round" stroke-linejoin="round"/>
<path d="M246.463 297.883L248.893 306.201C248.977 306.333 249.034 306.48 249.06 306.634C249.086 306.788 249.08 306.946 249.042 307.098C249.005 307.25 248.937 307.392 248.843 307.517C248.749 307.642 248.63 307.746 248.494 307.823C247.479 308.43 236.11 307.823 236.11 307.823C235.79 307.658 235.535 307.388 235.388 307.059C235.242 306.729 235.212 306.36 235.303 306.011C235.503 304.588 238.349 297.855 238.349 297.855L246.463 297.883Z" stroke="#263238" stroke-linecap="round" stroke-linejoin="round"/>
<path d="M224.551 297.684L225.286 305.268C225.33 305.74 225.205 306.212 224.932 306.6V306.6C224.75 306.853 224.511 307.059 224.233 307.201C223.955 307.343 223.648 307.417 223.336 307.416H207.607C206.012 307.416 202.929 307.361 203.228 305.794C203.428 304.779 216.211 297.711 216.211 297.711L224.551 297.684Z" stroke="#263238" stroke-linecap="round" stroke-linejoin="round"/>
<path d="M232.457 229.195L230.435 220.641L223.128 215.566" stroke="#6B6B6B" stroke-linecap="round" stroke-linejoin="round"/>
<path d="M211.696 152.735V168.547C211.696 169.454 206.828 190.295 206.42 192.343C206.012 194.391 206.42 196.267 208.042 198.559C209.665 200.852 215.757 203.163 229.012 204.241C242.266 205.319 252.148 200.453 254.849 197.345C257.551 194.237 254.441 188.284 253.498 179.902C252.556 171.52 252.275 144.987 248.494 143.266C244.714 141.544 232.529 135.699 232.529 135.699C232.529 135.699 225.63 135.699 221.034 137.729C218.014 139.175 215.338 141.248 213.183 143.809" fill="#A1AAE1"/>
<path d="M211.696 152.735V168.547C211.696 169.454 206.828 190.295 206.42 192.343C206.012 194.391 206.42 196.267 208.042 198.559C209.665 200.852 215.757 203.163 229.012 204.241C242.266 205.319 252.148 200.453 254.849 197.345C257.551 194.237 254.441 188.284 253.498 179.902C252.556 171.52 252.275 144.987 248.494 143.266C244.714 141.544 232.529 135.699 232.529 135.699C232.529 135.699 225.63 135.699 221.034 137.729C218.014 139.175 215.338 141.248 213.183 143.809" stroke="#263238" stroke-linecap="round" stroke-linejoin="round"/>
<path d="M231.713 132.99C232.468 132.928 233.224 133.103 233.874 133.491C234.525 133.879 235.037 134.462 235.34 135.156C236.291 137.594 233.309 152.328 233.309 152.328C233.309 152.328 226.682 147.598 225.059 147.598C223.436 147.598 215.993 152.328 215.993 152.328C215.993 152.328 218.432 142.188 220.599 138.264C222.765 134.341 228.712 132.184 231.151 132.827L231.713 132.99Z" fill="white" stroke="#263238" stroke-linecap="round" stroke-linejoin="round"/>
<path d="M232.257 131.637C232.257 131.637 232.801 132.987 230.362 139.484C227.924 145.981 226.736 151.518 225.222 150.023C223.708 148.528 221.977 140.698 221.977 140.698C221.977 140.698 229.818 135.017 232.257 131.637Z" fill="white" stroke="#263238" stroke-linecap="round" stroke-linejoin="round"/>
<path d="M210.499 121.162C211.186 124.918 212.069 128.635 213.146 132.298C214.461 136.249 216.156 142.094 220.68 143.408C225.204 144.722 226.528 141.342 228.413 139.783C230.299 138.225 233.309 133.187 233.309 130.722C233.309 128.257 233.118 122.811 232.176 120.926C231.233 119.041 229.537 117.157 224.642 116.214C219.746 115.272 215.213 116.069 210.499 121.162Z" fill="white" stroke="#263238" stroke-linecap="round" stroke-linejoin="round"/>
<path d="M231.804 126.247C231.804 126.247 228.975 127.379 228.223 125.685C227.47 123.99 226.147 121.535 226.147 121.535C226.147 121.535 220.299 123.99 216.727 124.144C213.155 124.299 209.185 122.078 208.623 119.614C208.06 117.149 210.128 111.703 214.842 108.74C219.556 105.777 229.347 104.399 232.366 109.111C234.655 112.705 235.776 116.917 235.575 121.172C235.575 124.371 235.385 126.609 235.385 126.609C234.848 126.297 234.251 126.103 233.634 126.041C233.016 125.978 232.392 126.048 231.804 126.247Z" fill="#263238" stroke="#263238" stroke-linecap="round" stroke-linejoin="round"/>
<path d="M230.671 127.571C230.671 127.571 232.366 123.231 234.061 123.802C235.757 124.373 235.947 127.762 234.968 129.828C233.989 131.894 231.577 132.655 231.015 132.283" fill="white"/>
<path d="M230.671 127.571C230.671 127.571 232.366 123.231 234.061 123.802C235.757 124.373 235.947 127.762 234.968 129.828C233.989 131.894 231.577 132.655 231.015 132.283" stroke="#263238" stroke-linecap="round" stroke-linejoin="round"/>
<path d="M217.997 129.862C217.997 129.862 224.814 129.382 226.256 129.572C227.697 129.762 227.498 131.384 227.117 133.197C226.736 135.009 224.524 136.078 221.931 135.598C219.338 135.118 218.758 132.879 218.305 132.526C217.852 132.173 217.634 131.756 217.063 132.046C216.492 132.336 216.582 134.347 215.912 135.208C215.241 136.069 213.409 136.749 211.379 135.689C209.348 134.628 209.457 131.565 209.457 130.505C209.457 129.445 210.508 129.545 210.989 129.599C211.469 129.653 217.997 129.862 217.997 129.862Z" stroke="#263238" stroke-linecap="round" stroke-linejoin="round"/>
<path d="M227.217 129.963L231.441 125.641" stroke="#263238" stroke-linecap="round" stroke-linejoin="round"/>
<path d="M209.928 129.574L211.56 127.562" stroke="#263238" stroke-linecap="round" stroke-linejoin="round"/>
<path d="M216.936 133.125C216.936 133.125 216.555 134.276 216.356 135.236C216.156 136.197 216.936 138.118 218.087 137.955C219.239 137.792 219.529 137.185 219.529 137.185" stroke="#263238" stroke-linecap="round" stroke-linejoin="round"/>
<path d="M224.832 128.521C223.536 128.119 222.14 128.186 220.889 128.711" stroke="#263238" stroke-linecap="round" stroke-linejoin="round"/>
<path d="M215.975 128.902C215.545 128.549 215.011 128.347 214.455 128.329C213.899 128.311 213.353 128.478 212.902 128.802" stroke="#263238" stroke-linecap="round" stroke-linejoin="round"/>
<path d="M244.569 141.641C244.569 141.641 250.389 143.399 252.954 145.564C255.52 147.73 259.663 164.739 260.878 172.849C262.093 180.959 263.988 187.972 262.365 188.924C260.742 189.875 235.367 186.559 235.367 186.559L234.56 182.644L251.096 179.201C251.096 179.201 241.858 161.078 241.595 156.112C241.349 153.451 241.719 150.769 242.674 148.274" fill="#A1AAE1"/>
<path d="M244.569 141.641C244.569 141.641 250.389 143.399 252.954 145.564C255.52 147.73 259.663 164.739 260.878 172.849C262.093 180.959 263.988 187.972 262.365 188.924C260.742 189.875 235.367 186.559 235.367 186.559L234.56 182.644L251.096 179.201C251.096 179.201 241.858 161.078 241.595 156.112C241.349 153.451 241.719 150.769 242.674 148.274" stroke="#263238" stroke-linecap="round" stroke-linejoin="round"/>
<path d="M217.516 173.312L224.678 190.892L212.512 195.35L204.933 178.314L217.516 173.312Z" fill="#2374EE" stroke="#263238" stroke-linecap="round" stroke-linejoin="round"/>
<path d="M204.933 178.313L196.275 171.961L203.981 189.812L212.512 195.349L204.933 178.313Z" fill="#2374EE" stroke="#263238" stroke-linecap="round" stroke-linejoin="round"/>
<path d="M234.56 182.646C234.56 182.646 224.814 179.927 223.735 179.13C222.656 178.333 213.591 181.966 213.047 181.966C212.503 181.966 212.639 182.646 213.183 182.918C213.727 183.19 219.674 181.558 219.674 181.558C219.674 181.558 213.999 184.54 213.999 185.183C214.006 185.392 214.057 185.597 214.149 185.784C214.242 185.972 214.373 186.137 214.534 186.271C214.534 186.271 214.669 187.485 215.349 187.757C216.029 188.028 222.919 186.669 222.919 186.669C222.919 186.669 217.48 188.699 218.187 189.107C218.513 189.307 218.888 189.413 219.27 189.413C219.653 189.413 220.028 189.307 220.354 189.107C221.161 188.699 226.038 187.213 226.038 187.213C226.038 187.213 229.664 188.291 231.713 187.757C232.945 187.422 234.156 187.013 235.34 186.533L234.56 182.646Z" fill="white" stroke="#263238" stroke-linecap="round" stroke-linejoin="round"/>
<path d="M214.534 186.296L221.297 184.402" stroke="#263238" stroke-linecap="round" stroke-linejoin="round"/>
<path d="M197.762 177.237C197.762 177.237 202.358 180.617 203.201 181.695C203.437 181.999 203.607 182.348 203.7 182.721C203.794 183.094 203.809 183.482 203.745 183.861L200.763 182.647C200.763 182.647 204.552 186.027 204.688 186.561C204.824 187.096 206.175 189.407 204.552 189.135C202.929 188.863 198.061 186.298 197.109 184.939C196.157 183.58 195.894 177.237 195.894 177.237C195.894 177.237 196.275 175.887 197.762 177.237Z" fill="white" stroke="#263238" stroke-linecap="round" stroke-linejoin="round"/>
<path d="M204.661 187.377L199.249 184.133" stroke="#263238" stroke-linecap="round" stroke-linejoin="round"/>
<path d="M205.205 188.589C205.205 188.589 200.336 186.433 199.385 185.617" stroke="#263238" stroke-linecap="round" stroke-linejoin="round"/>
<path d="M200.735 182.646L199.113 181.559" stroke="#263238" stroke-linecap="round" stroke-linejoin="round"/>
<path d="M234.125 231.488H230.353V308.095H234.125V231.488Z" fill="white" stroke="#263238" stroke-linecap="round" stroke-linejoin="round"/>
<path d="M406.285 231.488H402.513V308.095H406.285V231.488Z" fill="white" stroke="#263238" stroke-linecap="round" stroke-linejoin="round"/>
<path d="M411.588 226.965H227.198V234.078H411.588V226.965Z" fill="white" stroke="#263238" stroke-linecap="round" stroke-linejoin="round"/>
<path d="M40.8234 231.488H37.052V308.095H40.8234V231.488Z" fill="white" stroke="#263238" stroke-linecap="round" stroke-linejoin="round"/>
<path d="M212.974 231.488H209.203V308.095H212.974V231.488Z" fill="white" stroke="#263238" stroke-linecap="round" stroke-linejoin="round"/>
<path d="M218.287 226.965H33.8971V234.078H218.287V226.965Z" fill="white" stroke="#263238" stroke-linecap="round" stroke-linejoin="round"/>
<path d="M350.666 244.918L359.333 300.42L363.974 300.71L365.071 246.277L350.666 244.918Z" fill="#707070" stroke="#263238" stroke-linecap="round" stroke-linejoin="round"/>
<path d="M359.333 300.418V306.598C359.334 306.845 359.428 307.082 359.596 307.263C359.764 307.444 359.993 307.556 360.239 307.577L363.639 307.767C363.782 307.775 363.925 307.751 364.057 307.697C364.19 307.644 364.31 307.562 364.407 307.458C364.505 307.353 364.578 307.228 364.623 307.092C364.667 306.956 364.681 306.812 364.663 306.67L363.974 300.708L359.333 300.418Z" fill="white" stroke="#263238" stroke-linecap="round" stroke-linejoin="round"/>
<path d="M384.527 245.051L374.908 300.363L370.257 300.544L370.103 246.102L384.527 245.051Z" fill="#707070" stroke="#263238" stroke-linecap="round" stroke-linejoin="round"/>
<path d="M374.908 300.363L374.799 306.534C374.795 306.786 374.693 307.026 374.516 307.205C374.338 307.384 374.099 307.488 373.847 307.495L370.438 307.613C370.296 307.617 370.154 307.589 370.024 307.533C369.893 307.477 369.776 307.393 369.681 307.287C369.586 307.181 369.515 307.055 369.474 306.919C369.433 306.783 369.421 306.639 369.441 306.498L370.257 300.545L374.908 300.363Z" fill="white" stroke="#263238" stroke-linecap="round" stroke-linejoin="round"/>
<path d="M347.928 191.281C347.928 191.281 333.423 219.372 333.024 221.764C332.625 224.157 335 227.7 339.152 227.301C343.304 226.902 354.12 226.712 354.12 226.712L354.319 222.951L341.854 221.375L349.369 215.439L347.928 191.281Z" fill="#FC6B57" stroke="#263238" stroke-linecap="round" stroke-linejoin="round"/>
<path d="M341.854 221.375L340.34 224.338" stroke="#263238" stroke-linecap="round" stroke-linejoin="round"/>
<path d="M386.775 191.887C386.775 191.887 401.552 219.389 401.951 221.79C402.35 224.191 399.975 227.725 395.823 227.327C391.671 226.928 381.961 226.738 381.961 226.738L381.762 222.914L388.507 221.337L383.783 215.329L386.775 191.887Z" fill="#FC6B57" stroke="#263238" stroke-linecap="round" stroke-linejoin="round"/>
<path d="M388.507 221.375L394.635 224.338" stroke="#263238" stroke-linecap="round" stroke-linejoin="round"/>
<path d="M361.726 183.878L352.207 188.916C347.448 191.435 348.218 190.022 347.937 191.281C347.656 192.541 349.542 236.2 349.542 236.2C349.542 236.2 353.168 239.734 362.705 240.676C376.975 242.071 383.131 237.595 383.131 237.595C383.131 237.595 386.757 193.429 386.757 191.888C386.757 190.348 380.864 187.358 377.093 185.545C373.321 183.733 369.133 182.202 361.726 183.878Z" fill="#FC6B57" stroke="#263238" stroke-linecap="round" stroke-linejoin="round"/>
<path d="M366.803 154.047C366.803 154.047 360.629 156.765 358.644 161.196C356.658 165.627 359.877 175.994 359.133 178.703C358.39 181.413 354.945 181.168 354.945 181.168C354.945 181.168 356.423 189.559 364.808 190.547C373.194 191.535 376.902 190.293 380.356 186.596C383.81 182.899 383.076 182.899 383.076 182.899C383.076 182.899 381.598 182.899 380.855 178.703C380.112 174.508 381.1 162.673 377.401 157.499C373.702 152.325 368.072 152.524 366.803 154.047Z" fill="#263238" stroke="#263238" stroke-linecap="round" stroke-linejoin="round"/>
<path d="M349.533 236.199C349.533 236.199 348.282 250.181 348.699 252.003C349.116 253.824 353.458 256.76 362.297 257.041C371.136 257.322 382.17 257.739 384.835 254.522C387.5 251.305 383.149 237.595 383.149 237.595C383.149 237.595 359.614 239.552 349.533 236.199Z" fill="#707070" stroke="#263238" stroke-linecap="round" stroke-linejoin="round"/>
<path d="M367.247 183.613C367.247 183.613 367.456 182.163 371.78 183.405" stroke="#263238" stroke-linecap="round" stroke-linejoin="round"/>
<path d="M349.333 307.25C349.204 307.24 349.077 307.206 348.961 307.147C348.845 307.089 348.742 307.008 348.658 306.909C348.573 306.81 348.51 306.696 348.47 306.572C348.43 306.449 348.415 306.319 348.427 306.189L351.3 253.297L354.6 253.56L350.376 306.352C350.355 306.609 350.234 306.847 350.039 307.015C349.844 307.183 349.59 307.267 349.333 307.25Z" fill="#263238" stroke="#263238" stroke-linecap="round" stroke-linejoin="round"/>
<path d="M384.916 307.25C385.177 307.229 385.419 307.105 385.589 306.907C385.759 306.708 385.843 306.45 385.823 306.189L382.949 253.297L379.649 253.56L383.865 306.352C383.888 306.61 384.011 306.848 384.208 307.015C384.404 307.183 384.659 307.267 384.916 307.25Z" fill="#263238" stroke="#263238" stroke-linecap="round" stroke-linejoin="round"/>
<path d="M388.298 211.661C380.914 212.727 373.465 213.275 366.005 213.302C359.026 213.225 352.059 212.677 345.154 211.661C344.892 211.62 344.623 211.641 344.371 211.722C344.118 211.804 343.888 211.944 343.7 212.132C343.512 212.319 343.37 212.548 343.287 212.8C343.205 213.052 343.182 213.32 343.223 213.583C344.293 220.27 347.33 239.508 347.33 243.187C347.33 247.663 345.788 251.868 345.788 253.825C345.788 255.782 346.632 257.323 348.028 257.876C348.68 258.138 356.015 258.156 365.933 258.102C377.41 258.156 384.753 258.102 385.397 257.876C386.793 257.323 387.636 255.782 387.636 253.825C387.636 251.868 386.095 247.663 386.095 243.187C386.095 239.508 389.132 220.261 390.211 213.583C390.253 213.322 390.232 213.054 390.151 212.803C390.07 212.552 389.93 212.323 389.744 212.136C389.557 211.948 389.329 211.808 389.078 211.725C388.826 211.643 388.559 211.621 388.298 211.661ZM381.118 252.647C380.619 252.837 374.962 252.855 366.114 252.81C358.472 252.855 352.814 252.81 352.316 252.647C351.749 252.366 351.28 251.919 350.973 251.365C350.665 250.812 350.533 250.178 350.593 249.548C350.593 248.053 351.772 244.845 351.772 241.393C351.772 240.595 351.581 238.819 351.291 236.572L354.093 239.607C354.477 240.019 354.941 240.347 355.457 240.571C355.974 240.796 356.531 240.912 357.094 240.912H376.313C377.38 240.913 378.405 240.497 379.169 239.752L382.097 236.898C381.825 238.991 381.653 240.631 381.653 241.429C381.653 244.845 382.84 248.053 382.84 249.584C382.893 250.208 382.758 250.834 382.45 251.38C382.143 251.927 381.679 252.368 381.118 252.647ZM384.826 218.838C384.354 221.738 383.393 227.728 382.65 232.875L379.858 234.605C378.292 235.556 376.495 236.058 374.663 236.055H359.006C357.227 236.055 355.481 235.58 353.948 234.678L350.766 232.811C350.031 227.673 349.079 221.72 348.608 218.838C348.578 218.637 348.597 218.432 348.661 218.239C348.726 218.046 348.835 217.871 348.98 217.728C349.124 217.585 349.301 217.478 349.494 217.416C349.688 217.354 349.894 217.338 350.095 217.37C355.419 218.146 360.789 218.564 366.168 218.621C371.932 218.605 377.688 218.187 383.393 217.37C383.591 217.346 383.791 217.367 383.978 217.433C384.166 217.498 384.336 217.607 384.474 217.749C384.613 217.891 384.717 218.063 384.778 218.252C384.839 218.441 384.855 218.642 384.826 218.838Z" fill="#263238" stroke="#263238" stroke-linecap="round" stroke-linejoin="round"/>
<path d="M278.574 195.294V187.746H289.354V195.856L278.574 195.294Z" fill="white" stroke="#263238" stroke-linecap="round" stroke-linejoin="round"/>
<path d="M273.262 178.094C273.262 178.094 271.576 177.668 271.576 180.332C271.576 182.996 273.788 184.854 274.694 184.664C275.601 184.473 274.277 179.49 274.132 178.511C273.987 177.532 273.262 178.094 273.262 178.094Z" fill="white" stroke="#263238" stroke-linecap="round" stroke-linejoin="round"/>
<path d="M294.258 178.094C294.258 178.094 295.935 177.668 295.935 180.332C295.935 182.996 293.732 184.854 292.826 184.664C291.919 184.473 293.243 179.49 293.379 178.511C293.515 177.532 294.258 178.094 294.258 178.094Z" fill="white" stroke="#263238" stroke-linecap="round" stroke-linejoin="round"/>
<path d="M294.295 167.556C294.295 167.556 295.346 167.031 294.168 164.53C293.853 163.821 293.382 163.193 292.79 162.693C292.198 162.192 291.501 161.832 290.75 161.639C290.75 161.639 291.656 161.113 291.656 160.588C291.656 160.062 290.478 159.935 286.924 160.986C285.962 161.195 285.092 161.704 284.44 162.441C283.787 163.177 283.387 164.103 283.298 165.082C283.231 165.044 283.161 165.01 283.089 164.983C282.228 164.566 278.892 163.08 277.296 163.877C275.483 164.783 277.559 164.53 277.559 164.53C275.468 164.871 273.586 165.999 272.301 167.683C270.334 170.401 271.775 170.71 272.174 170.71C272.573 170.71 272.963 169.522 272.963 169.522V172.023C272.963 172.023 273.008 172.241 273.09 172.585C272.537 176.292 273.516 180.487 274.06 183.124C274.758 186.486 277.559 189.703 279.662 190.373C281.766 191.044 288.193 190.373 288.193 190.373C289.796 188.761 291.163 186.93 292.255 184.936C293.422 182.47 294.041 179.781 294.068 177.053C294.784 175.555 295.206 173.934 295.31 172.277C295.609 168.87 294.295 167.556 294.295 167.556Z" fill="#263238" stroke="#263238" stroke-linecap="round" stroke-linejoin="round"/>
<path d="M290.895 181.782C290.895 181.782 284.957 178.584 279.109 181.085C275.728 182.525 273.235 186.114 273.235 186.114C276.178 185.235 279.229 184.766 282.3 184.718C286.09 184.803 289.872 185.081 293.633 185.552C292.961 184.137 292.032 182.859 290.895 181.782Z" fill="#4CBC9A" stroke="#263238" stroke-linecap="round" stroke-linejoin="round"/>
<path d="M260.243 195.066C260.243 195.066 244.831 219.388 244.433 221.762C244.034 224.136 246.409 227.697 250.561 227.298C254.713 226.9 270.143 226.709 270.143 226.709L270.343 222.949L257.886 221.372L265.402 215.437L260.243 195.066Z" fill="#4CBC9A" stroke="#263238" stroke-linecap="round" stroke-linejoin="round"/>
<path d="M257.886 221.371L251.749 224.334" stroke="#263238" stroke-linecap="round" stroke-linejoin="round"/>
<path d="M307.685 194.09C307.685 194.09 323.305 219.39 323.695 221.764C324.085 224.138 321.719 227.699 317.567 227.301C313.414 226.902 297.984 226.712 297.984 226.712L297.785 222.951L310.25 221.374L302.735 215.439L307.685 194.09Z" fill="#4CBC9A" stroke="#263238" stroke-linecap="round" stroke-linejoin="round"/>
<path d="M310.25 221.371L316.379 224.334" stroke="#263238" stroke-linecap="round" stroke-linejoin="round"/>
<path d="M277.74 183.876L268.221 188.914C263.462 191.433 260.524 193.807 260.243 195.067C259.962 196.326 265.565 236.197 265.565 236.197C265.565 236.197 269.191 239.731 278.719 240.674C292.989 242.069 299.145 237.593 299.145 237.593C299.145 237.593 307.685 195.629 307.685 194.097C307.685 192.566 296.905 187.383 293.134 185.561C289.363 183.74 285.156 182.199 277.74 183.876Z" fill="#4CBC9A" stroke="#263238" stroke-linecap="round" stroke-linejoin="round"/>
<path d="M257.442 247.806L274.096 301.007L278.719 300.445L271.857 246.547L257.442 247.806Z" fill="white" stroke="#263238" stroke-linecap="round" stroke-linejoin="round"/>
<path d="M274.096 301.007L275.193 307.087C275.237 307.334 275.375 307.555 275.578 307.703C275.78 307.852 276.032 307.917 276.281 307.885L279.662 307.45C279.804 307.432 279.941 307.384 280.062 307.308C280.184 307.232 280.287 307.131 280.364 307.011C280.442 306.89 280.493 306.755 280.512 306.613C280.532 306.471 280.52 306.327 280.478 306.19L278.72 300.445L274.096 301.007Z" fill="white" stroke="#263238" stroke-linecap="round" stroke-linejoin="round"/>
<path d="M308.791 247.806L292.137 301.007L287.513 300.445L294.376 246.547L308.791 247.806Z" fill="white" stroke="#263238" stroke-linecap="round" stroke-linejoin="round"/>
<path d="M292.137 301.007L291.013 307.087C290.968 307.334 290.831 307.555 290.628 307.703C290.426 307.852 290.174 307.917 289.925 307.885L286.543 307.45C286.401 307.432 286.265 307.384 286.143 307.308C286.022 307.232 285.919 307.131 285.841 307.011C285.763 306.89 285.713 306.755 285.693 306.613C285.674 306.471 285.685 306.327 285.727 306.19L287.486 300.445L292.137 301.007Z" fill="white" stroke="#263238" stroke-linecap="round" stroke-linejoin="round"/>
<path d="M279.835 241.507C279.835 241.507 264.586 236.749 261.785 238.154C258.983 239.558 256.182 243.183 257.161 247.215C258.14 251.248 266.544 256.168 268.357 256.277C270.17 256.386 279.98 256.277 279.98 256.277L279.835 241.507Z" fill="white" stroke="#263238" stroke-linecap="round" stroke-linejoin="round"/>
<path d="M287.332 241.507C287.332 241.507 302.59 236.749 305.391 238.154C308.192 239.558 310.985 243.183 310.006 247.215C309.027 251.248 300.632 256.168 298.809 256.277C296.987 256.386 287.196 256.277 287.196 256.277L287.332 241.507Z" fill="white" stroke="#263238" stroke-linecap="round" stroke-linejoin="round"/>
<path d="M265.565 236.199C265.565 236.199 264.305 250.181 264.722 252.003C265.139 253.824 269.481 256.76 278.321 257.041C287.16 257.322 298.193 257.739 300.858 254.522C303.524 251.305 299.172 237.595 299.172 237.595C299.172 237.595 275.601 239.552 265.565 236.199Z" fill="white" stroke="#263238" stroke-linecap="round" stroke-linejoin="round"/>
<path d="M265.357 307.25C265.096 307.229 264.854 307.105 264.684 306.907C264.514 306.708 264.43 306.45 264.45 306.189L267.324 253.297L270.624 253.56L266.408 306.352C266.385 306.61 266.262 306.848 266.065 307.015C265.869 307.183 265.614 307.267 265.357 307.25Z" fill="#263238" stroke="#263238" stroke-linecap="round" stroke-linejoin="round"/>
<path d="M300.985 307.25C301.246 307.229 301.488 307.105 301.658 306.907C301.828 306.708 301.912 306.45 301.892 306.189L299.018 253.297L295.718 253.56L299.933 306.352C299.957 306.61 300.08 306.848 300.276 307.015C300.473 307.183 300.727 307.267 300.985 307.25Z" fill="#263238" stroke="#263238" stroke-linecap="round" stroke-linejoin="round"/>
<path d="M304.285 211.658C296.901 212.723 289.452 213.271 281.992 213.298C275.013 213.22 268.047 212.672 261.141 211.658C260.879 211.616 260.61 211.637 260.358 211.719C260.105 211.8 259.875 211.94 259.687 212.128C259.499 212.315 259.357 212.544 259.275 212.796C259.192 213.048 259.169 213.316 259.21 213.579C260.289 220.266 263.326 239.504 263.326 243.183C263.326 247.659 261.785 251.864 261.785 253.821C261.785 255.778 262.619 257.319 264.024 257.872C264.668 258.134 272.002 258.153 281.92 258.098C293.406 258.153 300.74 258.098 301.384 257.872C302.789 257.319 303.623 255.778 303.623 253.821C303.623 251.864 302.091 247.659 302.091 243.183C302.091 239.504 305.128 220.257 306.198 213.579C306.24 213.318 306.219 213.051 306.138 212.799C306.057 212.548 305.917 212.319 305.731 212.132C305.544 211.944 305.316 211.804 305.065 211.721C304.813 211.639 304.546 211.617 304.285 211.658ZM297.105 252.643C296.606 252.833 290.949 252.852 282.101 252.806C274.459 252.852 268.802 252.806 268.303 252.643C267.736 252.362 267.267 251.915 266.96 251.361C266.652 250.808 266.52 250.174 266.58 249.544C266.58 248.049 267.768 244.841 267.768 241.389C267.768 240.591 267.578 238.815 267.278 236.568L270.089 239.604C270.472 240.016 270.936 240.345 271.453 240.57C271.969 240.794 272.526 240.91 273.09 240.908H292.309C293.375 240.906 294.399 240.49 295.165 239.748L298.084 236.894C297.821 238.987 297.649 240.627 297.649 241.425C297.649 244.841 298.827 248.049 298.827 249.58C298.88 250.205 298.745 250.83 298.437 251.376C298.13 251.923 297.666 252.364 297.105 252.643ZM300.813 218.834C300.341 221.734 299.381 227.724 298.646 232.871L295.8 234.601C294.237 235.551 292.443 236.052 290.614 236.051H275.003C273.22 236.053 271.471 235.577 269.935 234.674L266.762 232.807C266.018 227.669 265.066 221.716 264.595 218.834C264.565 218.633 264.584 218.428 264.648 218.235C264.713 218.042 264.822 217.867 264.967 217.724C265.111 217.581 265.288 217.474 265.481 217.412C265.675 217.35 265.881 217.334 266.082 217.366C271.406 218.142 276.776 218.56 282.155 218.617C287.904 218.599 293.645 218.181 299.335 217.366C299.536 217.334 299.741 217.349 299.935 217.412C300.128 217.474 300.304 217.581 300.448 217.724C300.592 217.867 300.701 218.042 300.764 218.235C300.827 218.428 300.844 218.634 300.813 218.834Z" fill="#263238" stroke="#263238" stroke-linecap="round" stroke-linejoin="round"/>
<path d="M267.786 211.922L273.162 231.939L277.351 231.341L272.863 212.819L267.786 211.922Z" fill="#757575" stroke="#263238" stroke-linecap="round" stroke-linejoin="round"/>
<path d="M289.009 230.742L292.898 212.818L298.284 212.211L293.198 231.938L289.009 230.742Z" fill="#757575" stroke="#263238" stroke-linecap="round" stroke-linejoin="round"/>
<path d="M262.745 244.543L269.88 259.431V266.01L262.102 249.871L262.745 244.543Z" fill="#757575" stroke="#263238" stroke-linecap="round" stroke-linejoin="round"/>
<path d="M302.771 244.543L295.645 259.431V266.01L303.415 249.871L302.771 244.543Z" fill="#757575" stroke="#263238" stroke-linecap="round" stroke-linejoin="round"/>
<path d="M290.333 226.866C290.333 226.866 277.477 225.96 273.588 227.165C269.699 228.37 267.614 231.342 267.913 236.127C268.212 240.911 265.52 259.433 265.819 264.218C266.118 269.002 267.913 271.993 275.682 273.488C283.452 274.983 291.529 274.394 296.017 272.582C300.505 270.769 302.644 263.937 299.897 256.742C297.15 249.547 297.839 238.483 296.643 233.109C295.446 227.736 292.427 227.165 290.333 226.866Z" fill="#3CC2E0" stroke="#263238" stroke-linecap="round" stroke-linejoin="round"/>
<path d="M297.585 262.891C297.585 263 297.377 265.854 297.35 265.963C295.246 273.946 283.978 272.678 277.731 271.636C274.622 271.119 269.962 269.552 268.756 266.199C267.442 262.574 269.146 258.043 269.799 254.373C270.198 252.099 270.424 245.131 272.999 243.971C275.574 242.811 291.203 241.134 293.569 245.856C296.217 251.166 296.643 256.748 297.585 262.891Z" fill="#3CC2E0" stroke="#263238" stroke-linecap="round" stroke-linejoin="round"/>
<path d="M285.764 232.402H279.853V235.71H285.764V232.402Z" fill="#263238" stroke="#263238" stroke-linecap="round" stroke-linejoin="round"/>
<path d="M270.633 254.629H296.171C296.23 255.557 295.951 256.475 295.386 257.214C294.822 257.954 294.009 258.464 293.098 258.652C289.281 259.468 285.075 259.314 281.204 259.323C277.731 259.314 270.234 259.83 270.633 254.629Z" fill="#263238" stroke="#263238" stroke-linecap="round" stroke-linejoin="round"/>
<path d="M157.355 245.242L166.022 300.753L170.664 301.034L171.761 246.61L157.355 245.242Z" fill="#FEC64F" stroke="#263238" stroke-linecap="round" stroke-linejoin="round"/>
<path d="M166.022 300.754V306.925C166.021 307.173 166.114 307.413 166.282 307.596C166.45 307.779 166.681 307.892 166.929 307.913L170.338 308.094C170.48 308.1 170.622 308.075 170.754 308.021C170.886 307.967 171.005 307.885 171.102 307.781C171.2 307.677 171.273 307.553 171.318 307.418C171.363 307.282 171.378 307.139 171.362 306.997L170.673 301.035L166.022 300.754Z" fill="white" stroke="#263238" stroke-linecap="round" stroke-linejoin="round"/>
<path d="M191.225 245.379L181.597 300.691L176.956 300.872L176.792 246.439L191.225 245.379Z" fill="#FEC64F" stroke="#263238" stroke-linecap="round" stroke-linejoin="round"/>
<path d="M181.597 300.691L181.489 306.862C181.485 307.108 181.39 307.343 181.222 307.522C181.055 307.701 180.827 307.812 180.582 307.832L177.173 307.941C177.031 307.944 176.889 307.917 176.758 307.861C176.626 307.805 176.509 307.721 176.413 307.615C176.318 307.509 176.246 307.384 176.204 307.248C176.161 307.111 176.149 306.968 176.167 306.826L176.983 300.873L181.597 300.691Z" fill="white" stroke="#263238" stroke-linecap="round" stroke-linejoin="round"/>
<path d="M154.627 191.605C154.627 191.605 140.121 219.696 139.713 222.089C139.305 224.481 141.699 228.024 145.851 227.625C150.003 227.227 160.809 227.036 160.809 227.036L161.009 223.276L148.552 221.699L156.068 215.764L154.627 191.605Z" fill="white" stroke="#263238" stroke-linecap="round" stroke-linejoin="round"/>
<path d="M148.552 221.699L147.038 224.662" stroke="#263238" stroke-linecap="round" stroke-linejoin="round"/>
<path d="M193.637 191C193.637 191 208.251 219.725 208.641 222.09C209.031 224.455 206.664 228.026 202.512 227.627C198.36 227.228 188.66 227.038 188.66 227.038L188.46 223.277L195.196 221.701L190.944 215.802L193.637 191Z" fill="white" stroke="#263238" stroke-linecap="round" stroke-linejoin="round"/>
<path d="M195.196 221.699L201.325 224.662" stroke="#263238" stroke-linecap="round" stroke-linejoin="round"/>
<path d="M168.407 184.212L158.887 189.241C154.128 191.761 154.899 190.347 154.627 191.607C154.355 192.866 156.231 236.507 156.231 236.507C156.231 236.507 159.858 240.05 169.386 240.983C183.664 242.379 189.82 237.902 189.82 237.902C189.82 237.902 193.446 193.736 193.446 192.196C193.446 190.655 187.554 187.665 183.773 185.852C179.993 184.04 175.822 182.527 168.407 184.212Z" fill="white" stroke="#263238" stroke-linecap="round" stroke-linejoin="round"/>
<path d="M156.231 236.508C156.231 236.508 154.971 250.499 155.388 252.311C155.805 254.124 160.148 257.069 168.987 257.349C177.826 257.63 188.859 258.047 191.515 254.83C194.172 251.613 189.838 237.903 189.838 237.903C189.838 237.903 166.303 239.879 156.231 236.508Z" fill="#FEC64F" stroke="#263238" stroke-linecap="round" stroke-linejoin="round"/>
<path d="M174.97 156.819C174.97 156.819 170.437 154.1 165.651 159.302C160.864 164.503 165.859 174.833 166.476 177.316C167.092 179.799 158.198 193.917 158.198 200.26C158.198 206.603 165.904 212.946 178.089 211.687C190.273 210.427 191.76 204.021 190.101 196.364C188.442 188.707 186.574 180.624 186.574 177.334C186.574 174.045 189.476 166.569 186.783 159.32C184.09 152.071 177.463 154.128 174.97 156.819Z" fill="#263238" stroke="#263238" stroke-linecap="round" stroke-linejoin="round"/>
<path d="M168.352 178.558L173.946 183.94C173.946 183.94 168.144 197.814 167.518 201.538C166.893 205.262 170.238 208.787 174.771 208.37C179.304 207.954 182.232 204.021 182.024 200.713C181.815 197.406 178.497 183.732 178.497 183.732C181.36 182.238 183.787 180.027 185.541 177.316" stroke="#808080" stroke-linecap="round" stroke-linejoin="round"/>
<path d="M173.946 183.949C173.946 183.949 174.154 182.499 178.479 183.741" stroke="#263238" stroke-linecap="round" stroke-linejoin="round"/>
<path d="M156.023 307.578C155.764 307.557 155.523 307.435 155.354 307.238C155.184 307.041 155.099 306.786 155.116 306.527L157.99 253.625L161.29 253.897L157.074 306.681C157.054 306.939 156.931 307.178 156.734 307.346C156.537 307.514 156.281 307.598 156.023 307.578Z" fill="#263238" stroke="#263238" stroke-linecap="round" stroke-linejoin="round"/>
<path d="M191.606 307.578C191.735 307.568 191.86 307.534 191.976 307.476C192.091 307.418 192.194 307.338 192.278 307.24C192.362 307.143 192.426 307.029 192.467 306.907C192.507 306.784 192.523 306.655 192.513 306.527L189.648 253.625L186.348 253.897L190.563 306.681C190.584 306.937 190.705 307.175 190.901 307.343C191.096 307.511 191.349 307.595 191.606 307.578Z" fill="#263238" stroke="#263238" stroke-linecap="round" stroke-linejoin="round"/>
<path d="M194.988 211.986C187.607 213.051 180.161 213.599 172.704 213.626C165.724 213.553 158.758 213.005 151.852 211.986C151.59 211.946 151.322 211.968 151.069 212.051C150.817 212.134 150.588 212.275 150.401 212.463C150.213 212.651 150.073 212.881 149.991 213.133C149.91 213.386 149.889 213.654 149.931 213.916C151 220.595 154.037 239.833 154.037 243.521C154.037 247.997 152.496 252.193 152.496 254.15C152.496 256.107 153.339 257.648 154.735 258.209C155.379 258.463 162.713 258.481 172.631 258.427C184.118 258.481 191.452 258.427 192.105 258.209C193.501 257.648 194.344 256.107 194.344 254.15C194.344 252.193 192.803 247.997 192.803 243.521C192.803 239.833 195.84 220.595 196.91 213.916C196.953 213.654 196.934 213.385 196.853 213.131C196.772 212.878 196.632 212.647 196.444 212.459C196.256 212.27 196.026 212.129 195.773 212.047C195.52 211.965 195.25 211.944 194.988 211.986ZM187.808 252.972C187.309 253.171 181.652 253.18 172.804 253.144C165.161 253.144 159.504 253.144 159.005 252.972C158.438 252.69 157.97 252.243 157.662 251.69C157.355 251.137 157.222 250.503 157.283 249.873C157.283 248.378 158.471 245.179 158.471 241.763C158.471 240.956 158.28 239.18 157.99 236.942L160.791 239.968C161.174 240.382 161.638 240.713 162.154 240.939C162.671 241.165 163.228 241.282 163.792 241.282H183.012C184.072 241.285 185.09 240.871 185.849 240.132L188.768 237.286C188.506 239.37 188.333 241.011 188.333 241.817C188.333 245.233 189.521 248.432 189.521 249.927C189.571 250.547 189.435 251.169 189.129 251.711C188.824 252.253 188.364 252.692 187.808 252.972ZM191.515 219.163C191.044 222.063 190.092 228.052 189.349 233.199L186.511 234.93C184.947 235.884 183.149 236.389 181.316 236.389H165.705C163.922 236.388 162.172 235.909 160.637 235.003L157.464 233.136C156.721 228.007 155.769 222.054 155.307 219.163C155.275 218.961 155.292 218.755 155.356 218.561C155.419 218.368 155.528 218.192 155.674 218.048C155.819 217.905 155.996 217.798 156.191 217.737C156.386 217.675 156.592 217.661 156.793 217.695C162.114 218.475 167.481 218.895 172.858 218.955C178.622 218.931 184.377 218.51 190.083 217.695C190.28 217.671 190.48 217.692 190.668 217.758C190.855 217.823 191.025 217.931 191.164 218.074C191.303 218.216 191.407 218.388 191.468 218.577C191.529 218.766 191.545 218.967 191.515 219.163Z" fill="#263238" stroke="#263238" stroke-linecap="round" stroke-linejoin="round"/>
<path d="M85.2731 183.38V175.832H96.0433V183.942L85.2731 183.38Z" fill="white" stroke="#263238" stroke-linecap="round" stroke-linejoin="round"/>
<path d="M79.9515 166.18C79.9515 166.18 78.2743 165.754 78.2743 168.418C78.2743 171.082 80.5136 172.886 81.3476 172.75C82.1817 172.614 80.9306 167.576 80.7946 166.597C80.6586 165.618 79.9515 166.18 79.9515 166.18Z" fill="white" stroke="#263238" stroke-linecap="round" stroke-linejoin="round"/>
<path d="M100.948 166.18C100.948 166.18 102.634 165.754 102.634 168.418C102.634 171.082 100.395 172.886 99.5517 172.75C98.7086 172.614 99.9688 167.576 100.114 166.597C100.259 165.618 100.948 166.18 100.948 166.18Z" fill="white" stroke="#263238" stroke-linecap="round" stroke-linejoin="round"/>
<path d="M87.3673 152.888C87.3673 152.888 82.6077 153.586 80.6495 157.781C78.6913 161.977 80.0965 167.858 80.7945 171.211C81.4926 174.563 84.294 177.789 86.3882 178.46C88.4824 179.13 94.9282 178.46 94.9282 178.46C96.5281 176.845 97.895 175.015 98.9896 173.023C100.948 169.525 101.229 162.946 100.386 159.177C99.5427 155.407 96.6053 151.619 94.3661 151.338C92.1268 151.058 90.0326 153.151 90.0326 153.151C89.2014 152.757 88.2594 152.664 87.3673 152.888Z" fill="#263238" stroke="#263238" stroke-linecap="round" stroke-linejoin="round"/>
<path d="M97.5844 181.987C97.5844 181.987 89.4252 180.727 85.7988 181.289C82.1725 181.851 79.9242 186.318 79.9242 186.318C82.8681 185.441 85.9185 184.971 88.99 184.923C92.7794 185.009 96.5619 185.29 100.322 185.765C99.6494 184.348 98.7213 183.068 97.5844 181.987Z" fill="white" stroke="#263238" stroke-linecap="round" stroke-linejoin="round"/>
<path d="M66.942 195.27C66.942 195.27 51.521 219.6 51.1312 222.01C50.7414 224.421 53.1075 227.946 57.2597 227.547C61.4118 227.148 76.8418 226.958 76.8418 226.958L77.0322 223.197L64.5758 221.621L72.0913 215.667L66.942 195.27Z" fill="#99B2D2" stroke="#263238" stroke-linecap="round" stroke-linejoin="round"/>
<path d="M64.5758 221.574L58.4473 224.537" stroke="#263238" stroke-linecap="round" stroke-linejoin="round"/>
<path d="M114.383 194.289C114.383 194.289 129.995 219.598 130.394 221.963C130.793 224.328 128.417 227.898 124.256 227.5C120.095 227.101 104.683 226.911 104.683 226.911L104.484 223.15L116.949 221.573L109.424 215.665L114.383 194.289Z" fill="#99B2D2" stroke="#263238" stroke-linecap="round" stroke-linejoin="round"/>
<path d="M116.94 221.574L123.077 224.537" stroke="#263238" stroke-linecap="round" stroke-linejoin="round"/>
<path d="M84.43 184.077L74.9108 189.115C70.1604 191.635 67.214 194.009 66.942 195.268C66.67 196.528 72.2546 236.399 72.2546 236.399C72.2546 236.399 75.8809 239.933 85.4091 240.875C99.6877 242.271 105.843 237.794 105.843 237.794C105.843 237.794 114.383 195.83 114.383 194.299C114.383 192.767 103.604 187.575 99.8237 185.763C96.0433 183.95 91.8458 182.401 84.43 184.077Z" fill="#99B2D2" stroke="#263238" stroke-linecap="round" stroke-linejoin="round"/>
<path d="M64.1406 248.006L80.7945 301.206L85.409 300.653L78.5553 246.746L64.1406 248.006Z" fill="#2374EE" stroke="#263238" stroke-linecap="round" stroke-linejoin="round"/>
<path d="M80.7946 301.209L81.8825 307.289C81.929 307.537 82.0685 307.758 82.2724 307.906C82.4764 308.054 82.7293 308.119 82.9794 308.087L86.361 307.652C86.5022 307.633 86.6377 307.584 86.7579 307.507C86.8781 307.431 86.9802 307.329 87.0571 307.209C87.1339 307.089 87.1836 306.954 87.2027 306.813C87.2219 306.672 87.21 306.528 87.1678 306.392L85.4091 300.656L80.7946 301.209Z" fill="white" stroke="#263238" stroke-linecap="round" stroke-linejoin="round"/>
<path d="M115.48 248.006L98.8264 301.206L94.2119 300.653L101.066 246.746L115.48 248.006Z" fill="#2374EE" stroke="#263238" stroke-linecap="round" stroke-linejoin="round"/>
<path d="M98.8174 301.209L97.7295 307.289C97.683 307.537 97.5435 307.758 97.3396 307.906C97.1356 308.054 96.8827 308.119 96.6326 308.087L93.251 307.652C93.1098 307.633 92.9743 307.584 92.8541 307.507C92.7339 307.431 92.6318 307.329 92.5549 307.209C92.4781 307.089 92.4284 306.954 92.4093 306.813C92.3901 306.672 92.402 306.528 92.4442 306.392L94.2029 300.656L98.8174 301.209Z" fill="white" stroke="#263238" stroke-linecap="round" stroke-linejoin="round"/>
<path d="M86.5332 241.708C86.5332 241.708 71.2754 236.96 68.4741 238.319C65.6727 239.678 62.8805 243.357 63.8596 247.38C64.8387 251.404 73.2336 256.333 75.0559 256.442C76.8781 256.551 86.6692 256.442 86.6692 256.442L86.5332 241.708Z" fill="#2374EE" stroke="#263238" stroke-linecap="round" stroke-linejoin="round"/>
<path d="M94.0307 241.711C94.0307 241.711 109.279 236.963 112.081 238.358C114.882 239.754 117.683 243.397 116.695 247.42C115.707 251.443 107.321 256.373 105.499 256.481C103.677 256.59 93.8856 256.481 93.8856 256.481L94.0307 241.711Z" fill="#2374EE" stroke="#263238" stroke-linecap="round" stroke-linejoin="round"/>
<path d="M72.2545 236.398C72.2545 236.398 70.9944 250.39 71.4114 252.202C71.8284 254.014 76.1709 256.959 85.0101 257.24C93.8493 257.521 104.882 257.938 107.539 254.721C110.195 251.504 105.862 237.794 105.862 237.794C105.862 237.794 82.3357 239.751 72.2545 236.398Z" fill="#2374EE" stroke="#263238" stroke-linecap="round" stroke-linejoin="round"/>
<path d="M72.0551 307.453C71.9264 307.444 71.8008 307.409 71.6854 307.351C71.5701 307.293 71.4674 307.213 71.3831 307.115C71.2989 307.018 71.2348 306.904 71.1945 306.782C71.1543 306.659 71.1386 306.53 71.1485 306.402L74.0133 253.5L77.3133 253.772L73.1067 306.556C73.0859 306.814 72.9635 307.053 72.7664 307.221C72.5693 307.39 72.3135 307.473 72.0551 307.453Z" fill="#263238" stroke="#263238" stroke-linecap="round" stroke-linejoin="round"/>
<path d="M107.629 307.453C107.758 307.444 107.884 307.409 107.999 307.351C108.114 307.293 108.217 307.213 108.301 307.115C108.386 307.018 108.45 306.904 108.49 306.782C108.53 306.659 108.546 306.53 108.536 306.402L105.671 253.5L102.371 253.772L106.587 306.556C106.608 306.812 106.729 307.05 106.924 307.218C107.119 307.386 107.373 307.47 107.629 307.453Z" fill="#263238" stroke="#263238" stroke-linecap="round" stroke-linejoin="round"/>
<path d="M110.984 211.861C103.6 212.926 96.1509 213.474 88.6908 213.501C81.7114 213.424 74.7451 212.876 67.8394 211.861C67.5763 211.819 67.307 211.84 67.0535 211.922C66.8 212.004 66.5696 212.145 66.3812 212.334C66.1928 212.522 66.0517 212.752 65.9695 213.005C65.8874 213.259 65.8664 213.528 65.9084 213.791C66.9782 220.469 70.0152 239.707 70.0152 243.395C70.0152 247.872 68.474 252.067 68.474 254.024C68.474 255.982 69.3172 257.522 70.7133 258.084C71.366 258.338 78.7003 258.356 88.6183 258.302C100.096 258.356 107.439 258.302 108.083 258.084C109.479 257.522 110.322 255.982 110.322 254.024C110.322 252.067 108.781 247.872 108.781 243.395C108.781 239.707 111.818 220.46 112.887 213.782C112.931 213.522 112.912 213.255 112.832 213.003C112.752 212.751 112.613 212.522 112.427 212.335C112.241 212.147 112.013 212.006 111.763 211.924C111.512 211.842 111.245 211.82 110.984 211.861ZM103.804 252.819C103.305 253.01 97.6479 253.028 88.7905 252.991C81.1481 252.991 75.5001 252.991 75.0014 252.819C74.4325 252.539 73.9622 252.093 73.6529 251.539C73.3437 250.986 73.2101 250.351 73.2699 249.72C73.2699 248.225 74.4575 245.026 74.4575 241.61C74.4575 240.804 74.2671 239.028 73.977 236.789L76.7783 239.816C77.1615 240.229 77.6257 240.559 78.142 240.785C78.6582 241.011 79.2155 241.128 79.7791 241.13H98.9987C100.068 241.132 101.094 240.712 101.854 239.961L104.783 237.116C104.511 239.2 104.338 240.84 104.338 241.646C104.338 245.063 105.526 248.261 105.526 249.756C105.579 250.381 105.443 251.007 105.136 251.553C104.829 252.099 104.365 252.54 103.804 252.819ZM107.502 219.011C107.04 221.91 106.079 227.9 105.336 233.047L102.498 234.778C100.933 235.729 99.1353 236.23 97.3034 236.228H81.692C79.913 236.228 78.1664 235.752 76.6333 234.85L73.4331 233.011C72.6987 227.873 71.7468 221.928 71.2754 219.038C71.2458 218.836 71.264 218.631 71.3286 218.438C71.3931 218.245 71.5022 218.07 71.647 217.927C71.7917 217.785 71.9681 217.678 72.1619 217.616C72.3556 217.553 72.5612 217.538 72.7622 217.57C78.089 218.346 83.462 218.764 88.8449 218.82C94.6087 218.804 100.364 218.386 106.07 217.57C106.267 217.545 106.467 217.567 106.655 217.632C106.842 217.698 107.012 217.806 107.151 217.948C107.29 218.09 107.394 218.263 107.455 218.452C107.516 218.641 107.532 218.841 107.502 219.038V219.011Z" fill="#263238" stroke="#263238" stroke-linecap="round" stroke-linejoin="round"/>
<path d="M0.906616 308.094H426.093" stroke="#263238" stroke-linecap="round" stroke-linejoin="round"/>
</g>
<defs>
<clipPath id="clip0_2791_11485">
<rect width="427" height="309" fill="white"/>
</clipPath>
</defs>
</svg>
