<svg width="31" height="30" viewBox="0 0 31 30" fill="none" xmlns="http://www.w3.org/2000/svg">
<g clip-path="url(#clip0_1898_11533)">
<rect x="0.810547" y="0.336853" width="29.1892" height="29.1892" rx="14.5946" transform="rotate(-0.173721 0.810547 0.336853)" fill="#FFE75C"/>
<path d="M23.3046 29.9409C23.4098 30.3623 23.4178 30.8024 23.3278 31.2273C23.2379 31.6525 23.0523 32.0514 22.7854 32.3943C22.5185 32.7369 22.177 33.0147 21.787 33.206C21.3969 33.3973 20.9686 33.4974 20.5339 33.4987L14.5975 33.5167L11.8209 35.0819L11.8206 34.9989C10.5545 35.0027 9.82692 34.5898 10.3733 29.9386C10.1202 28.6317 8.94223 23.4875 8.28713 19.6495C7.69531 16.1434 8.99907 14.8525 12.6046 12.8074C14.1267 8.23628 18.1126 8.49404 18.8889 11.2316C19.6652 13.9691 22.2328 25.6059 23.3046 29.9409Z" fill="#66BCFF"/>
<path d="M23.3044 29.9409C22.758 27.7008 21.7906 23.5523 20.8863 19.6735L16.2357 19.3348L12.6527 21.878L10.5854 24.6657L9.5312 26.1011C9.91023 27.885 10.2258 29.337 10.3522 29.9594C9.80587 34.6106 10.5336 35.0235 11.7998 35.0196L15.4692 33.4518L23.9776 32.824C23.7672 31.8906 23.5357 30.9157 23.3044 29.9409Z" fill="#EB459F"/>
<path d="M13.7846 27.633C14.0417 26.0837 13.902 24.7698 13.4721 24.6985C13.0424 24.6271 12.4856 25.8252 12.2283 27.3747C11.9711 28.9239 12.111 30.2376 12.5407 30.309C12.9704 30.3803 13.5274 29.1822 13.7846 27.633Z" fill="black"/>
<path d="M11.0599 23.7924C11.2663 23.4182 11.4937 23.0439 11.721 22.7111C14.0563 19.3206 16.2535 18.4007 18.3707 18.3942L21.0068 18.3863C21.0462 18.3872 21.0847 18.3974 21.1194 18.416C21.1539 18.4346 21.1837 18.4613 21.206 18.4936C21.2283 18.5259 21.2427 18.563 21.248 18.602C21.2533 18.641 21.2493 18.6807 21.2363 18.7177L20.8862 19.6735C16.8386 19.6858 15.406 19.5656 12.0541 23.1044L10.5853 24.6657L11.0599 23.7924Z" fill="#D11583"/>
<path d="M12.0545 23.2289C10.6646 23.4822 9.56665 24.2121 8.94786 25.5009C8.77209 25.8584 8.51773 26.1714 8.20339 26.4164L4.47543 29.1469C4.05643 29.4462 3.76511 29.8919 3.65891 30.3958C3.55291 30.8997 3.63982 31.425 3.90249 31.8677C4.08568 32.1785 4.34737 32.4356 4.66113 32.6131C4.9751 32.7907 5.33011 32.8826 5.69065 32.8794L7.2474 32.8747C10.48 31.059 11.9707 29.8299 12.7366 29.1218C13.5024 28.4138 14.3496 27.145 14.1999 25.6925C14.0502 24.24 13.6311 22.9336 12.0545 23.2289Z" fill="white"/>
<path d="M13.1853 12.4944C12.6846 11.6656 12.017 10.5675 11.7664 10.0494C11.5157 9.53119 10.9142 9.65756 11.7722 11.9797C9.69417 11.1973 9.25916 11.4892 9.15626 11.7801C9.05336 12.071 9.51045 12.2149 10.3837 12.7104C11.257 13.2059 12.1929 13.805 12.1929 13.805L13.1853 12.4944Z" fill="#66BCFF"/>
<path d="M15.344 12.55C15.6956 12.113 15.8189 11.6353 15.6108 11.4698C15.4027 11.3044 15.1745 11.3881 14.8644 11.8042C14.7306 11.9734 14.5856 12.1334 14.4299 12.2829C14.0781 12.6161 14.1619 12.8649 14.3283 13.0097C14.4948 13.1545 14.9925 12.987 15.344 12.55Z" fill="black"/>
<path d="M18.8682 11.2524C18.8682 11.2524 16.3947 10.139 15.3341 9.45726C14.2734 8.7755 13.7306 7.76006 14.2072 7.48877C14.6838 7.21749 15.5993 7.85817 16.2452 8.68649C16.22 7.21283 16.4682 6.90074 16.8625 6.87879C17.2568 6.85684 17.2999 7.43788 17.3231 8.26808C17.3464 9.09829 17.4929 9.42995 18.1173 9.98849C18.4911 10.323 18.7532 10.7641 18.8682 11.2524Z" fill="#3442D9"/>
<path d="M9.81866 18.1711C9.23747 18.1729 8.7378 17.6762 9.1918 16.8031C9.64581 15.9299 11.1374 15.0536 11.8629 14.7193C12.5884 14.385 12.9217 14.7161 12.9432 14.9651C12.9647 15.2141 12.8619 15.588 12.345 16.2538C11.8281 16.9196 10.8772 18.1679 9.81866 18.1711Z" fill="white"/>
<path d="M10.2747 18.1074L9.92223 18.1708L9.41891 16.4702L9.70856 16.158L10.2747 18.1074Z" fill="#8CD9FF"/>
<path d="M11.5595 17.1902L11.27 17.4817L10.6823 15.387L10.993 15.1785L11.5595 17.1902Z" fill="#8CD9FF"/>
<path d="M12.717 15.7338L12.448 16.1082L12.0285 14.6565L12.3812 14.5932L12.717 15.7338Z" fill="#8CD9FF"/>
<path d="M12.2568 14.4067C12.6416 14.5891 13.0373 14.7475 13.4416 14.8806" stroke="black" stroke-linecap="round" stroke-linejoin="round"/>
<path d="M21.5387 22.4115C21.1404 22.0976 20.6531 21.9174 20.1466 21.8968C19.0672 21.9 18.4685 22.9604 18.264 23.9782C18.2311 24.1414 18.1433 24.2882 18.0152 24.3945C17.887 24.5007 17.7263 24.5595 17.5601 24.5615L17.4148 24.5619C17.3211 24.545 17.2317 24.5093 17.1523 24.4569C17.0726 24.4046 17.0046 24.3367 16.952 24.2574C16.8995 24.178 16.8633 24.0889 16.8462 23.9953C16.8289 23.9016 16.8309 23.8054 16.8518 23.7126C17.2402 21.7395 18.5232 20.4695 20.1423 20.4645C20.41 20.4671 20.6691 20.5605 20.8772 20.7297C21.0851 20.8986 21.2294 21.1334 21.2867 21.3951L21.5387 22.4115Z" fill="white"/>
<path d="M23.3046 29.9409C23.3511 30.1263 23.3591 30.3193 23.3286 30.5079C23.298 30.6967 23.2296 30.8772 23.1272 31.0386C23.0247 31.2 22.8906 31.3389 22.733 31.4469C22.5753 31.5551 22.3973 31.6299 22.2099 31.667L21.6912 31.7101C20.508 31.7137 19.281 31.0117 18.3225 29.7899C18.2652 29.7137 18.2232 29.6271 18.1993 29.5348C18.1753 29.4423 18.1699 29.3462 18.1831 29.2517C18.1963 29.1572 18.228 29.0662 18.2763 28.9841C18.3246 28.9017 18.3887 28.8299 18.4649 28.7724C18.5399 28.7122 18.6265 28.6679 18.7192 28.6423C18.8119 28.6169 18.9091 28.6106 19.0044 28.6238C19.0997 28.6372 19.1911 28.6697 19.2735 28.7199C19.3556 28.7699 19.4268 28.8361 19.4823 28.9146C20.149 29.7636 20.9603 30.2801 21.6868 30.2779C22.4133 30.2757 22.8479 29.8592 23.1576 29.3186C23.1999 29.5468 23.2625 29.7542 23.3046 29.9409Z" fill="#2331B5"/>
<path d="M21.8956 24.0087C21.7491 24.0099 21.6066 24.0567 21.4878 24.1425C21.3691 24.2284 21.28 24.3493 21.2329 24.4881L20.3682 26.8362C20.2927 27.0567 20.2951 27.2964 20.375 27.5154C20.4552 27.7343 20.6079 27.919 20.8077 28.0388C20.8982 28.0939 21 28.1283 21.1053 28.1388C21.2108 28.1494 21.3172 28.136 21.4169 28.0998C21.5165 28.0636 21.6066 28.0054 21.6807 27.9297C21.7547 27.8539 21.8107 27.7624 21.8444 27.662L22.4005 26.1451C22.2531 25.4606 22.0847 24.7553 21.8956 24.0087Z" fill="#5865F2"/>
<path d="M20.8077 28.0387C20.6078 27.919 20.4551 27.7343 20.375 27.5153C20.295 27.2964 20.2926 27.0566 20.3681 26.8362L20.6153 26.192C20.6566 26.0796 20.7219 25.9774 20.8063 25.8925C20.891 25.8078 20.9929 25.7423 21.1051 25.7004C21.2174 25.6588 21.3374 25.6418 21.457 25.6508C21.5763 25.6598 21.6925 25.6945 21.7971 25.7525C21.9682 25.8518 22.0994 26.0073 22.1681 26.1929C22.2367 26.3782 22.2388 26.5816 22.1738 26.7684L21.8444 27.662C21.8106 27.7623 21.7547 27.8538 21.6806 27.9296C21.6065 28.0054 21.5164 28.0636 21.4169 28.0998C21.3171 28.136 21.2107 28.1494 21.1052 28.1387C20.9999 28.1283 20.8981 28.0941 20.8077 28.0387Z" fill="#FFE75C"/>
</g>
<defs>
<clipPath id="clip0_1898_11533">
<rect x="0.810547" y="0.336853" width="29.1892" height="29.1892" rx="14.5946" transform="rotate(-0.173721 0.810547 0.336853)" fill="white"/>
</clipPath>
</defs>
</svg>
