<svg width="31" height="31" viewBox="0 0 31 31" fill="none" xmlns="http://www.w3.org/2000/svg">
<g clip-path="url(#clip0_1898_11536)">
<rect x="0.922852" y="0.971741" width="29.1892" height="29.1892" rx="14.5946" transform="rotate(-0.173721 0.922852 0.971741)" fill="#FF78B9"/>
<path d="M24.7223 35.2076C25.708 33.1248 23.0379 29.7947 18.7583 27.7694C14.479 25.744 10.2107 25.7906 9.225 27.8734C8.23934 29.9561 10.9094 33.2863 15.189 35.3116C19.4683 37.3368 23.7366 37.2902 24.7223 35.2076Z" fill="black"/>
<path d="M25.2422 23.6899C23.9736 22.905 23.9114 22.926 23.2018 21.662C22.4923 20.3979 21.5978 19.778 20.5596 19.6358L21.8747 28.9516C24.5755 29.7322 26.2319 28.3572 26.6014 27.0069C26.9709 25.6566 26.5315 24.4748 25.2422 23.6899Z" fill="#3442D9"/>
<path d="M23.9791 24.9183C23.6217 23.4042 22.6823 21.6427 21.5781 20.3176C21.1825 19.8389 20.9012 19.2762 20.7555 18.6724C20.6099 18.0686 20.6036 17.4396 20.7373 16.833L21.1877 14.756C21.5044 13.3144 21.3286 11.8082 20.6888 10.4782C20.0487 9.14815 18.9815 8.07097 17.6575 7.41874C16.8977 7.04752 16.0713 6.83129 15.227 6.78265C13.6382 6.6711 12.0684 7.18305 10.8508 8.20981C9.63322 9.23659 8.86363 10.6974 8.70529 12.2822C8.67165 12.5507 8.65856 12.8214 8.66623 13.0919L8.66894 13.9844L8.72178 17.7205C8.77191 19.3989 8.42119 21.0649 7.69867 22.5807C7.39869 23.1821 7.17084 23.8169 7.01943 24.4716L17.2022 35.2343C22.036 34.4101 25.0523 29.7307 23.9791 24.9183Z" fill="#3442D9"/>
<path d="M17.2232 35.2342C22.0363 34.4101 25.0526 29.7306 23.9794 24.9183C23.643 23.4871 22.7869 21.8291 21.7659 20.5453" stroke="black" stroke-miterlimit="10" stroke-linecap="round"/>
<path d="M20.7423 25.2395C21.6924 23.6591 22.0666 23.8656 23.77 24.317C25.141 24.6657 26.727 27.4631 24.6349 28.8809C22.5428 30.2987 18.2643 29.4607 20.7423 25.2395Z" fill="#3442D9"/>
<path d="M15.9958 20.6017C16.1868 20.4548 16.2166 20.1738 16.0628 19.9738C15.9091 19.7739 15.6297 19.731 15.439 19.8777C15.2483 20.0246 15.2182 20.3055 15.372 20.5054C15.5258 20.7054 15.8051 20.7484 15.9958 20.6017Z" fill="black"/>
<path d="M18.6113 20.756C18.802 20.6093 18.8321 20.3282 18.6783 20.1283C18.5245 19.9285 18.2452 19.8853 18.0543 20.0323C17.8635 20.179 17.8334 20.4601 17.9872 20.6599C18.141 20.8598 18.4203 20.9029 18.6113 20.756Z" fill="black"/>
<path d="M18.3408 20.4312C20.5673 22.2511 19.658 23.5615 21.4512 26.2545" stroke="white" stroke-miterlimit="10" stroke-linecap="round"/>
<path d="M15.8411 24.5278C17.2081 23.5689 17.6224 23.2978 18.1414 23.317L19.491 23.4374L19.1547 28.9183L15.7296 28.8249L15.8411 24.5278Z" fill="#FFC619"/>
<path d="M22.4797 23.1171C22.5055 23.0445 22.5137 22.9669 22.5044 22.8905C22.495 22.8142 22.468 22.741 22.4257 22.6768C22.3831 22.6126 22.3265 22.559 22.26 22.5204C22.1932 22.4817 22.1186 22.4591 22.0418 22.4542L19.7576 22.129C19.5919 22.1119 19.4251 22.1522 19.2857 22.2433C19.1461 22.3345 19.0421 22.4707 18.9911 22.6295L17.7187 27.4074C17.6931 27.4801 17.6847 27.5576 17.694 27.6339C17.7034 27.7103 17.7304 27.7835 17.7727 27.8477C17.8153 27.9119 17.8719 27.9655 17.9386 28.0041C18.0052 28.0427 18.0798 28.0653 18.1566 28.0703L20.4408 28.3955C20.6067 28.4126 20.7733 28.3723 20.9129 28.2811C21.0523 28.19 21.1563 28.0537 21.2073 27.895L22.4797 23.1171Z" fill="black"/>
<path d="M22.3744 22.64L22.6243 22.9299L21.9395 22.9942L22.3744 22.64Z" fill="black"/>
<path d="M23.5045 25.7915C23.2124 25.315 22.9408 24.7139 22.1516 24.5917L22.0509 25.5884L23.5045 25.7915Z" fill="#FFC619"/>
<path d="M22.7084 23.3862C22.7299 23.3137 22.7353 23.2373 22.7241 23.1624C22.7129 23.0875 22.6855 23.016 22.6437 22.9528C22.602 22.8896 22.5471 22.8364 22.4826 22.7968C22.4181 22.7571 22.3456 22.732 22.2705 22.7233L19.9655 22.3982C19.8004 22.3848 19.6353 22.4268 19.4967 22.5173C19.3579 22.608 19.2531 22.742 19.199 22.8987L17.9265 27.6766C17.905 27.7491 17.8996 27.8255 17.9108 27.9004C17.9221 27.9753 17.9495 28.0468 17.9912 28.11C18.0329 28.1732 18.0878 28.2266 18.1523 28.266C18.217 28.3057 18.2893 28.3308 18.3644 28.3395L20.6694 28.6439C20.8309 28.6699 20.9965 28.6352 21.134 28.5468C21.2716 28.4581 21.3719 28.3221 21.4152 28.1642L22.7084 23.3862Z" fill="white"/>
<path d="M22.0089 25.2772L22.9434 25.4197C23.1328 25.4401 23.3064 25.534 23.4272 25.681C23.5481 25.8282 23.6061 26.0169 23.5893 26.2065C23.5848 26.3051 23.5598 26.4017 23.5158 26.49C23.4717 26.5782 23.4096 26.6564 23.3337 26.7191C23.2575 26.782 23.1692 26.8282 23.074 26.8546C22.979 26.8813 22.8794 26.8876 22.7818 26.8731L22.0965 26.7714C21.8837 26.7416 21.6866 26.6421 21.5358 26.4888C21.3853 26.3352 21.2896 26.1364 21.2637 25.9229C21.2582 25.8279 21.2747 25.7328 21.3118 25.6451C21.3489 25.5573 21.4057 25.4793 21.4776 25.4168C21.5496 25.3546 21.635 25.3095 21.7271 25.2853C21.8192 25.2612 21.9157 25.2584 22.0089 25.2772Z" fill="#FFC619"/>
<path d="M21.7019 26.6688L22.3456 26.7706C22.4534 26.784 22.5569 26.8204 22.649 26.8776C22.7411 26.9348 22.8196 27.0116 22.879 27.1021C22.9387 27.1929 22.9778 27.2955 22.9937 27.4028C23.0096 27.51 23.0018 27.6194 22.9712 27.7235C22.9275 27.891 22.8221 28.0357 22.676 28.1285C22.53 28.2214 22.3543 28.2555 22.184 28.2241L21.7894 28.163C21.5741 28.134 21.3741 28.0354 21.22 27.8822C21.066 27.7291 20.9661 27.5297 20.9358 27.3146C20.9295 27.2172 20.9462 27.12 20.9843 27.0302C21.0227 26.9407 21.0814 26.8612 21.1559 26.7983C21.2305 26.7356 21.3185 26.6911 21.4135 26.6686C21.5083 26.6461 21.6071 26.6462 21.7019 26.6688Z" fill="#FFC619"/>
<path d="M19.6946 29.0411L17.452 28.7366L17.553 27.823L19.7957 28.1483L19.6946 29.0411Z" fill="#FFC619"/>
<path d="M20.2237 25.4072L18.8116 25.2039C18.7444 25.1949 18.6812 25.1667 18.6294 25.1229C18.5777 25.0788 18.5398 25.0208 18.5203 24.9557L18.3946 24.5824L18.2885 23.8147L17.5287 26.5154L19.8129 26.8406C20.0256 26.8684 20.2413 26.8238 20.4255 26.714C20.6097 26.6043 20.7516 26.4359 20.8282 26.2356C20.8526 26.1407 20.8556 26.0414 20.8373 25.9452C20.8187 25.8489 20.7792 25.7579 20.7215 25.6788C20.6637 25.5995 20.589 25.5341 20.5031 25.4873C20.4171 25.4402 20.3217 25.4129 20.2237 25.4072Z" fill="#FFC619"/>
<path d="M19.771 26.82L17.5283 26.5154L17.6366 28.0096L19.3602 28.2535C19.5706 28.2842 19.7848 28.2403 19.9663 28.13C20.1478 28.0196 20.2851 27.8492 20.3547 27.6485C20.3828 27.555 20.3894 27.4564 20.3739 27.3599C20.3583 27.2634 20.3209 27.172 20.2648 27.0921C20.2085 27.0123 20.1348 26.9463 20.0492 26.8991C19.9637 26.852 19.8686 26.8249 19.771 26.82Z" fill="#FFC619"/>
<path d="M35.699 35.9255C35.7545 33.6836 33.9061 33.3363 32.6375 32.5514C31.369 31.7665 29.8695 30.1105 28.3093 28.9944C26.7492 27.8782 25.4001 27.9031 22.7664 28.7206L25.7939 34.5648C27.4986 35.4314 27.8751 36.3851 28.7923 37.6693C29.7095 38.9534 30.9356 39.4479 32.1596 39.2158C32.8062 40.2725 32.9315 40.5212 33.8646 40.1862C34.7976 39.8513 36.3315 39.1409 36.7429 37.915C37.1543 36.6891 36.5517 36.4834 35.699 35.9255Z" fill="#66BCFF"/>
<path d="M25.6588 31.1195C25.3825 32.0114 25.2045 32.9307 25.1274 33.861" stroke="black" stroke-width="2" stroke-miterlimit="10" stroke-linecap="round"/>
<path d="M26.9162 41.9093C25.0325 43.617 23.4328 43.1445 22.6853 43.0637C21.9378 42.983 22.0192 42.443 21.9556 41.9866C21.8919 41.5301 21.8483 40.8453 21.8483 40.8453C19.9591 40.7265 19.7269 39.4402 19.6819 38.2988C19.6369 37.1573 19.3458 36.9921 19.1981 36.183C16.9194 35.7808 14.7641 34.8595 12.8989 33.49C11.0337 32.1208 9.5091 30.3401 8.44282 28.2865L10.4104 26.8483L14.8195 29.6994C17.7843 28.5903 19.4224 28.0249 21.0203 27.9163C22.6183 27.8076 24.1976 28.4048 24.7233 30.6242C25.2489 32.8436 25.3133 33.5284 25.7939 34.5855C25.9193 34.855 26.1279 35.228 26.3367 35.6217C26.9215 36.8031 27.5285 38.4618 26.3508 40.2712C26.4968 40.831 26.6859 41.3788 26.9162 41.9093Z" fill="#8CD9FF"/>
<path d="M11.6726 32.4696C11.6059 30.996 12.1632 29.9565 13.1798 29.7874L10.6005 28.0101L8.73488 28.8253C9.21631 30.1522 10.4454 31.6015 11.6726 32.4696Z" fill="black"/>
<path d="M15.8823 24.2372C15.2788 23.7201 14.8222 23.763 14.0967 24.0766C13.3266 23.3732 12.3299 23.2724 11.2932 23.6284C10.2564 23.9845 8.65958 24.4667 7.72629 24.7186C7.67425 24.7383 7.61759 24.7424 7.56318 24.7307C7.50876 24.7189 7.45886 24.6918 7.4193 24.6527C7.37995 24.6134 7.35261 24.5637 7.34061 24.5093C7.32841 24.455 7.33239 24.3983 7.35153 24.3461L8.02895 21.8533C5.81302 23.5205 5.0973 27.0721 5.80888 29.0003C6.52046 30.9286 9.59238 30.8985 10.5663 30.3559C11.5402 29.8132 11.8718 29.6462 12.9933 29.8503C14.1148 30.0545 14.987 30.1972 16.4574 29.0718L17.3283 28.7786C17.6546 26.8887 17.3599 25.5197 15.8823 24.2372Z" fill="#3442D9"/>
<path d="M15.8825 24.2372C15.279 23.7201 14.8225 23.763 14.0969 24.0765C13.3268 23.3731 12.3302 23.2724 11.2934 23.6284C10.2566 23.9844 8.65982 24.4666 7.72653 24.7185" stroke="black" stroke-miterlimit="10" stroke-linecap="round"/>
<path d="M14.0967 24.0765C14.7181 24.5548 15.2362 25.1539 15.62 25.8375C16.0038 26.5213 16.2452 27.2757 16.3297 28.0551" stroke="black" stroke-miterlimit="10" stroke-linecap="round"/>
<path d="M20.3837 23.4349C20.3929 23.4062 20.396 23.3759 20.3923 23.3458C20.3887 23.3159 20.3787 23.2871 20.3626 23.2616C20.3468 23.2359 20.3255 23.214 20.3004 23.1974C20.2752 23.1809 20.2467 23.17 20.2168 23.1655L20.0093 23.1662C19.9515 23.1537 19.8911 23.1642 19.841 23.1953C19.7907 23.2264 19.7545 23.2757 19.7399 23.333L19.5552 24.0186C19.5457 24.0489 19.5433 24.0809 19.5482 24.1122C19.5531 24.1435 19.565 24.1732 19.5829 24.1993C19.6011 24.2252 19.625 24.2467 19.6527 24.2622C19.6803 24.2774 19.7113 24.2863 19.7428 24.2878L19.9504 24.2872C20.005 24.2941 20.0602 24.2808 20.106 24.2502C20.1515 24.2195 20.1846 24.1736 20.199 24.1204L20.3837 23.4349Z" fill="#29CC7A"/>
<path d="M17.051 19.4595C17.2105 19.1342 17.4465 18.8525 17.7385 18.6383C18.0307 18.4241 18.3705 18.284 18.7286 18.2298C18.7701 18.2297 18.7908 18.1881 18.7699 18.1674C18.4971 17.1719 18.6199 16.6111 18.9706 15.8835C18.9741 15.8783 18.9764 15.8722 18.9772 15.866C18.978 15.8597 18.9773 15.8533 18.9755 15.8473C18.9734 15.8413 18.97 15.8358 18.9654 15.8313C18.9611 15.8268 18.9557 15.8234 18.9496 15.8213C17.7858 15.3267 17.3474 14.4977 17.2209 13.8754C17.2 13.834 17.1377 13.8134 17.1171 13.855C16.6013 14.8944 15.8957 14.938 15.2935 14.8568C15.252 14.857 15.2314 14.8985 15.2522 14.9192C15.8577 16.0798 15.4243 16.9114 14.8241 17.4944C14.821 17.5025 14.8194 17.5113 14.8198 17.52C14.8203 17.5288 14.8226 17.5373 14.8265 17.5452C14.8305 17.553 14.8359 17.5599 14.8428 17.5654C14.8494 17.571 14.8573 17.575 14.8659 17.5773C16.0289 17.7813 16.6539 18.5474 16.9472 19.4391C16.9681 19.4805 17.0304 19.5011 17.051 19.4595Z" fill="#FFC619"/>
<path d="M19.7715 26.82L18.5879 26.6575" stroke="black" stroke-miterlimit="10" stroke-linecap="round"/>
<path d="M21.9297 26.7512L22.5942 26.853" stroke="black" stroke-miterlimit="10" stroke-linecap="round"/>
<path d="M17.1792 13.8341C17.6946 12.6702 17.6507 11.8608 17.504 11.4046" stroke="black" stroke-miterlimit="10" stroke-linecap="round"/>
<path d="M18.8453 15.8632C19.1693 15.9119 19.5001 15.8902 19.8149 15.7997C20.1299 15.7092 20.4217 15.552 20.6703 15.3388" stroke="black" stroke-miterlimit="10" stroke-linecap="round"/>
<path d="M17.0505 19.4595C17.0527 19.614 17.0322 19.768 16.9897 19.9164" stroke="black" stroke-miterlimit="10" stroke-linecap="round"/>
<path d="M14.9274 17.5149C14.161 18.0569 12.9984 17.9774 12.1881 17.7308" stroke="black" stroke-miterlimit="10" stroke-linecap="round"/>
<path d="M15.293 14.8568C15.0006 14.2558 14.4588 13.5725 13.96 13.3456" stroke="black" stroke-miterlimit="10" stroke-linecap="round"/>
<path d="M18.7695 18.1674C19.0377 18.3095 19.3245 18.4134 19.6215 18.4761" stroke="black" stroke-miterlimit="10" stroke-linecap="round"/>
<path d="M16.5424 15.9533C16.8994 17.3222 17.3558 17.2378 17.5621 16.822C17.7684 16.4062 17.9121 15.8869 18.2444 15.9274C18.5766 15.9679 18.4953 16.5493 18.1035 17.3808C17.7116 18.2123 17.0687 18.401 16.4646 17.6764C15.8604 16.9517 15.8375 16.246 15.8153 15.748C15.793 15.2499 16.3116 15.1237 16.5424 15.9533Z" fill="#C40655"/>
<path d="M15.725 20.2732C15.9828 23.1368 14.5339 24.5112 14.0859 27.3562" stroke="white" stroke-miterlimit="10" stroke-linecap="round"/>
<path d="M19.0316 36.2043C18.6543 34.9808 18.4814 32.7396 19.4925 30.7646" stroke="black" stroke-width="2" stroke-miterlimit="10" stroke-linecap="round"/>
<path d="M8.53501 24.4878L7.00053 24.9906" stroke="black" stroke-miterlimit="10" stroke-linecap="round"/>
<path d="M23.79 24.2547L24.8288 24.5421" stroke="black" stroke-miterlimit="10" stroke-linecap="round"/>
</g>
<defs>
<clipPath id="clip0_1898_11536">
<rect x="0.922852" y="0.971741" width="29.1892" height="29.1892" rx="14.5946" transform="rotate(-0.173721 0.922852 0.971741)" fill="white"/>
</clipPath>
</defs>
</svg>
