<svg width="30" height="31" viewBox="0 0 30 31" fill="none" xmlns="http://www.w3.org/2000/svg">
<g clip-path="url(#clip0_1898_11537)">
<rect x="0.00488281" y="1.03516" width="29.1892" height="29.1892" rx="14.5946" transform="rotate(-0.173721 0.00488281 1.03516)" fill="url(#paint0_linear_1898_11537)"/>
<path d="M26.519 12.6203C28.0298 6.80269 28.7611 5.76949 32.2971 13.2577L26.519 12.6203Z" fill="#D4E1FF"/>
<path d="M12.0869 25.0834L11.9483 25.2035C14.058 27.1812 17.2701 32.2693 22.1317 31.9974C22.1317 31.9974 26.0837 39.167 30.3097 38.361C34.5356 37.5543 37.6531 31.5928 37.6531 31.5928C38.7919 29.535 39.5959 27.3091 40.035 24.9986C39.9739 24.4636 39.7742 24.0472 39.3965 23.7904C36.373 21.7963 14.2854 23.4704 12.0869 25.0834Z" fill="#1C1B29"/>
<path d="M18.4534 10.3433L22.8831 11.52C24.1984 10.953 25.6171 10.6652 27.0495 10.6748C33.7978 10.6544 37.4072 16.119 37.4276 22.8441C37.448 29.5699 33.8718 35.0563 27.1234 35.0768C20.3743 35.0973 16.785 29.6326 16.7646 22.9067C16.7576 21.9163 16.8341 20.9272 16.9935 19.9497C17.4429 17.3688 17.3136 14.719 16.6124 12.1939C16.5442 11.9387 16.5441 11.67 16.6123 11.4147C16.6804 11.1594 16.8143 10.9265 17.0007 10.7391C17.187 10.5518 17.4193 10.4167 17.6742 10.3472C17.9291 10.2778 18.1978 10.2764 18.4534 10.3433Z" fill="#B3CAFF"/>
<path d="M37.1988 25.7618C33.9279 27.2197 30.549 25.7016 27.2881 23.8472C23.7286 21.8145 21.4299 16.6432 20.4526 14.9996C19.4753 13.3553 18.0842 13.0429 17.1247 10.6455C16.898 10.8259 16.7289 11.0684 16.6381 11.3435C16.5473 11.6185 16.5388 11.9141 16.6135 12.1939C17.314 14.7192 17.4439 17.3688 16.9938 19.9505C16.8345 20.9277 16.7579 21.9166 16.7649 22.9067C16.7853 29.6326 20.3946 35.0972 27.1237 35.0768C32.8604 35.0594 36.3021 31.0809 37.1988 25.761L37.1988 25.7618Z" fill="#8DAEF7"/>
<path d="M36.5972 23.7587C36.6131 28.9964 33.5097 33.2519 29.6783 33.2635C25.8477 33.2751 22.7379 29.0384 22.722 23.8008C22.6958 15.1512 28.0963 22.2175 31.9278 22.2059C35.7584 22.1943 36.6736 16.3391 36.5972 23.7587Z" fill="#FCFDFF"/>
<path d="M29.7793 28.8298C30.1512 28.7973 30.4084 28.2758 30.3559 27.6645C30.3026 27.0531 29.9581 26.584 29.5869 26.6157C29.2158 26.649 28.9578 27.1705 29.0111 27.781C29.0643 28.3924 29.4081 28.8622 29.7793 28.8298ZM34.3364 27.8027C34.4455 27.1988 34.2365 26.6554 33.8691 26.5899C33.5024 26.5235 33.1165 26.9594 33.0074 27.5632C32.8991 28.1662 33.1081 28.7096 33.4747 28.776C33.8414 28.8424 34.2274 28.4065 34.3364 27.8027Z" fill="#1C1B29"/>
<path d="M49.8557 88.8314C47.0386 89.4353 38.5784 81.4261 38.5784 81.4261C40.9228 88.7194 41.3264 90.9007 41.7291 92.7839C42.1317 94.6678 41.8942 95.0454 41.7399 96.375C41.5849 97.7046 41.5847 97.6652 42.3837 99.3294C43.1827 100.993 43.7029 102.162 43.8638 103.015C43.9248 103.511 43.9062 104.013 43.8089 104.503L8.33779 104.61C8.33779 104.61 8.1562 103.818 8.90407 101.613C9.65194 99.4086 11.3733 97.5784 12.3213 96.1862C13.2701 94.7947 13.2111 94.9339 12.9514 94.3593C11.7519 91.5457 13.6792 92.1553 14.4804 87.9269C15.2808 83.6985 15.4784 63.541 17.2591 55.303C19.0405 47.0642 21.7941 45.1112 21.9719 38.3059C18.6075 35.1822 10.2659 27.0528 11.9478 25.2027C13.8584 26.9825 19.5777 27.8386 24.2423 27.7851C24.6514 27.778 25.0524 27.9001 25.3882 28.1341C25.7239 28.3681 25.9772 28.7021 26.1121 29.0884C26.9133 31.4863 28.9326 36.2221 32.0871 35.597C35.2417 34.9727 37.5662 29.3309 38.2157 27.2855C38.3526 26.839 38.6385 26.453 39.0256 26.1918C39.448 25.876 39.7931 25.4683 40.0345 24.9994C40.4835 28.9058 34.0237 39.2811 34.0237 39.2811C34.0237 39.2811 35.6742 53.3226 38.9041 57.935C42.1332 62.5481 51.1653 62.5207 51.3964 66.9244C51.6283 71.3273 52.6527 88.2274 49.8557 88.8314Z" fill="#BD4070"/>
<path d="M22.4019 29.4564C20.0591 29.3245 16.9023 28.9371 11.833 26.4333C12.6552 29.3863 19.126 35.6362 21.9724 38.3059C21.9359 40.4166 21.5602 42.5078 20.8597 44.4992C23.4309 48.122 26.5207 45.7517 27.1076 55.9473C27.3587 60.2915 30.572 66.0546 33.9257 72.2938C37.2795 78.5331 37.7011 67.0447 37.5449 61.3912C37.456 58.3162 36.8298 54.5091 36.163 50.8806C34.7377 45.3893 34.0241 39.2811 34.0241 39.2811C34.0241 39.2811 38.5479 32.0062 39.7641 27.3603C39.4545 27.5541 39.2127 27.8393 39.0722 28.1756C37.8492 30.9554 36.4793 33.6682 34.9681 36.3026C33.4076 38.9462 30.4938 40.2641 27.1231 35.0768C23.7533 29.8887 24.9232 29.6079 22.4019 29.4564Z" fill="#A12C66"/>
<path d="M23.8405 19.7313C27.3396 21.4066 28.557 23.546 31.3556 23.458C34.1542 23.37 35.2414 22.0175 36.3673 20.2092C35.9079 19.2182 34.6666 22.1976 31.9272 22.2059C29.1878 22.2142 25.604 18.5552 23.8405 19.7313Z" fill="#8DAEF7"/>
</g>
<defs>
<linearGradient id="paint0_linear_1898_11537" x1="14.5995" y1="30.3567" x2="14.5995" y2="9.44842" gradientUnits="userSpaceOnUse">
<stop stop-color="#7196FF"/>
<stop offset="1" stop-color="#2A5EE8"/>
</linearGradient>
<clipPath id="clip0_1898_11537">
<rect x="0.00488281" y="1.03516" width="29.1892" height="29.1892" rx="14.5946" transform="rotate(-0.173721 0.00488281 1.03516)" fill="white"/>
</clipPath>
</defs>
</svg>
