<svg width="30" height="30" viewBox="0 0 30 30" fill="none" xmlns="http://www.w3.org/2000/svg">
<g clip-path="url(#clip0_1898_11534)">
<rect x="0.243164" y="0.384033" width="29.1892" height="29.1892" rx="14.5946" transform="rotate(-0.173721 0.243164 0.384033)" fill="#3442D9"/>
<path d="M6.75355 11.8353C5.89396 9.01494 5.43323 7.66714 6.9667 6.83222C8.50018 5.99729 13.1721 6.54356 15.3531 7.05587C17.5342 7.56818 17.8472 8.10691 16.4214 10.2492L6.75355 11.8353Z" fill="#FFF4B3"/>
<path d="M5.83436 37.2238C5.47682 28.8391 5.66325 21.8642 5.92182 18.148C4.52835 17.2389 3.88275 16.5351 3.61172 16.1416C3.55545 16.0658 3.52652 15.9731 3.53018 15.8786C3.53363 15.7844 3.56906 15.694 3.63091 15.6226C5.82274 12.8553 7.7043 10.4418 9.67278 9.31493C11.6413 8.18809 14.3388 7.88931 18.6483 12.1522C18.6896 12.2068 18.7102 12.2742 18.7066 12.3425C18.7031 12.411 18.6755 12.4759 18.6287 12.5258C18.2885 12.8656 17.9291 13.1855 17.5523 13.4839C18.4288 15.038 19.7021 17.4004 19.7021 17.4004L20.6984 17.3974C21.3369 17.3955 21.9502 17.6473 22.403 18.0976C22.8561 18.5477 23.1116 19.1592 23.1135 19.7979C23.1401 21.7282 22.6905 24.0543 21.807 27.046C25.8021 30.272 24.8474 37.1454 24.8474 37.1454L5.83436 37.2238Z" fill="#29CC7A"/>
<path d="M21.8072 27.0459C21.9304 26.6097 22.0537 26.2149 22.1563 25.7995L19.0273 27.5525C19.0273 27.5525 14.0563 24.2258 5.7266 22.1753C5.593 26.0365 5.58811 31.2672 5.83449 37.2237L24.8476 37.1661C24.8476 37.1661 25.8023 30.2719 21.8072 27.0459Z" fill="#8CD9FF"/>
<path d="M22.5977 27.8116C22.3549 27.5356 22.0903 27.2797 21.8067 27.046C21.9299 26.6097 22.0532 26.2149 22.1557 25.7995L19.0268 27.5526C19.0268 27.5526 14.0558 24.2258 5.72608 22.1754C5.70678 22.6528 5.68759 23.1718 5.68916 23.6907C12.0695 26.3075 15.508 30.8221 15.9217 37.1932L20.6335 37.1789C21.4527 33.5232 22.1072 30.3246 22.5977 27.8116Z" fill="#BAE8FF"/>
<path d="M8.23035 19.7392L8.31337 19.7389C8.35476 19.6973 8.39621 19.6764 8.41678 19.6141L10.2049 13.776C10.2169 13.7514 10.2237 13.7246 10.2242 13.6972C10.2247 13.67 10.2195 13.6429 10.2084 13.618C10.1975 13.5929 10.1811 13.5705 10.1607 13.5525C10.1401 13.5345 10.1159 13.5213 10.0896 13.5137C10.0634 13.5061 10.0358 13.5043 10.0088 13.5084C9.98182 13.5126 9.95611 13.5226 9.93333 13.5379C9.91075 13.5531 9.89171 13.5731 9.87746 13.5966C9.86341 13.6199 9.85457 13.646 9.85174 13.6732L8.1253 19.3243C7.37107 19.0053 6.64735 18.6183 5.96309 18.1685L5.92158 18.1686C5.92195 18.2932 5.90164 18.4385 5.90201 18.5631C6.62055 19.0223 7.37896 19.4161 8.16808 19.7393L8.23035 19.7392Z" fill="black"/>
<path d="M15.924 10.3338L8.4948 10.896C16.8022 12.4483 17.1558 12.6756 15.924 10.3338Z" fill="black"/>
<path d="M14.0826 15.7383C14.3691 15.6216 14.4191 15.0793 14.1941 14.5272C13.9691 13.9754 13.5545 13.6225 13.2678 13.7392C12.9811 13.8561 12.9313 14.3982 13.1563 14.9503C13.3811 15.5024 13.7959 15.8552 14.0826 15.7383Z" fill="black"/>
<path d="M16.2266 16.8795C16.5945 16.1793 16.5474 15.4302 16.1212 15.2062C15.695 14.9821 15.0513 15.3683 14.6831 16.0683C14.3151 16.7685 14.3625 17.5177 14.7884 17.7418C15.2146 17.9657 15.8586 17.5797 16.2266 16.8795Z" stroke="white" stroke-miterlimit="10"/>
<path d="M19.2821 16.8745C19.6501 16.1745 19.603 15.4253 19.1768 15.2012C18.7506 14.9772 18.1068 15.3632 17.7388 16.0634C17.3709 16.7636 17.418 17.5128 17.8442 17.7367C18.2704 17.9606 18.9141 17.5747 19.2821 16.8745Z" stroke="white" stroke-miterlimit="10"/>
<path d="M17.1789 15.6287C17.3701 15.5509 17.3497 15.0576 17.1333 14.5267C16.917 13.9959 16.5867 13.6287 16.3956 13.7067C16.2046 13.7845 16.225 14.2778 16.4413 14.8088C16.6577 15.3395 16.988 15.7067 17.1789 15.6287Z" fill="black"/>
<path d="M19.1732 21.0551C17.5706 21.0652 16.0138 20.5199 14.768 19.5117C13.4779 18.457 13.9964 18.3309 14.8059 18.3077C15.6153 18.2845 19.4973 18.418 20.6186 18.5807C21.74 18.7433 21.9543 20.9637 19.1732 21.0551Z" fill="#912869"/>
<path d="M19.1732 21.0551C17.5706 21.0652 16.0138 20.5199 14.768 19.5117C13.4779 18.457 13.9964 18.3309 14.8059 18.3077C15.6153 18.2845 19.4973 18.418 20.6186 18.5807C21.74 18.7433 21.9543 20.9637 19.1732 21.0551Z" fill="#611B46"/>
<path d="M19.0975 23.3802L19.0122 22.6125C19.5984 22.564 20.1694 22.3999 20.692 22.13" stroke="black" stroke-linecap="round" stroke-linejoin="round"/>
<path d="M19.9415 20.949C18.8174 19.8731 17.2997 19.0682 14.4981 19.2635C16.9126 21.4771 19.4231 21.0959 19.9415 20.949Z" fill="#EB459F"/>
<path d="M16.3564 16.1444L17.6226 16.1406" stroke="white" stroke-miterlimit="10"/>
<path d="M14.4475 16.3992L9.0857 14.236C8.97327 14.1927 8.852 14.1775 8.73249 14.1912C8.61276 14.205 8.49831 14.2475 8.39847 14.3151C8.29883 14.3826 8.21691 14.4734 8.15995 14.5794C8.10277 14.6854 8.0722 14.8036 8.0707 14.924C8.06864 15.0658 8.10933 15.2048 8.18752 15.323C8.26551 15.4411 8.37746 15.5332 8.5086 15.5869L8.86197 15.7519" stroke="white" stroke-miterlimit="10" stroke-linecap="round"/>
<path d="M13.3179 13.6835C13.7391 13.693 14.1594 13.6357 14.5628 13.5137" stroke="black" stroke-miterlimit="10" stroke-linecap="round"/>
<path d="M16.4321 13.674C16.6976 13.6801 16.9609 13.6224 17.1996 13.5057" stroke="black" stroke-miterlimit="10" stroke-linecap="round"/>
<path d="M7.45738 11.1066C14.8672 10.9804 17.3762 10.1425 19.4911 9.36807C21.6059 8.59365 21.3965 7.99234 19.7777 8.05952C18.1589 8.1267 12.6233 10.2607 7.45738 11.1066Z" fill="#FFF4B3"/>
<path d="M7.45684 11.1066L9.98853 10.8914L16.0666 9.66903L14.5468 8.17915L7.30273 8.20111L7.45684 11.1066Z" fill="#FFF4B3"/>
<path d="M19.7472 18.7286L18.2939 18.65C18.4626 19.5213 18.8792 19.9767 19.2316 19.8303C19.584 19.684 19.7062 18.9156 19.7472 18.7286Z" fill="white"/>
<path d="M15.2637 18.5554C15.4535 19.5512 15.8287 20.069 16.1811 19.9018C16.5334 19.7347 16.6139 18.9042 16.6752 18.5719L15.2637 18.5554Z" fill="white"/>
<path d="M16.9153 8.69088C13.7187 9.55769 10.4781 10.2535 7.2074 10.7752" stroke="#FFC619" stroke-width="2" stroke-miterlimit="10" stroke-linecap="round"/>
</g>
<defs>
<clipPath id="clip0_1898_11534">
<rect x="0.243164" y="0.384033" width="29.1892" height="29.1892" rx="14.5946" transform="rotate(-0.173721 0.243164 0.384033)" fill="white"/>
</clipPath>
</defs>
</svg>
