<svg width="31" height="30" viewBox="0 0 31 30" fill="none" xmlns="http://www.w3.org/2000/svg">
<g clip-path="url(#clip0_1898_11535)">
<rect x="0.84082" y="0.421875" width="29.1892" height="29.1892" rx="14.5946" transform="rotate(-0.173721 0.84082 0.421875)" fill="#7196FF"/>
<path d="M11.8169 25.3391L11.1777 25.9768L15.8479 30.5797L16.4873 29.9418L11.8169 25.3391Z" fill="#2E3338"/>
<path d="M14.7282 25.3372L14.0888 25.9749L18.7591 30.5776L19.3984 29.9399L14.7282 25.3372Z" fill="#2E3338"/>
<path d="M19.9713 24.5223C21.1735 23.3175 21.9149 21.7352 22.0681 20.0474C22.2213 18.3594 21.7767 16.6713 20.8109 15.2733L17.781 10.884L14.2126 10.8948L14.2296 16.5052C14.2311 16.9926 14.0372 17.4605 13.6907 17.8062C13.3442 18.1518 12.8734 18.3468 12.3818 18.3483L6.64465 18.3657L6.64851 19.6364C6.65417 21.5047 7.40677 23.2944 8.74124 24.6133C10.0757 25.9322 11.8833 26.6725 13.7675 26.6719L14.8124 26.6687C16.7483 26.6467 18.5992 25.8767 19.9713 24.5223Z" fill="#FFD836"/>
<path d="M17.7746 8.83159C18.721 8.82872 19.6298 9.19875 20.3011 9.86027C20.9722 10.5218 21.351 11.4206 21.3538 12.3591L21.3566 13.2778L14.2196 13.2995L14.2167 12.3611C14.2191 11.4261 14.5947 10.53 15.2614 9.86864C15.928 9.20727 16.8316 8.83443 17.7746 8.83159Z" fill="#FFD836"/>
<path d="M22.397 11.9648C22.5693 12.1327 22.7055 12.3334 22.7977 12.5549C22.8898 12.7763 22.936 13.0139 22.9333 13.2534L19.5225 13.2637C19.3957 13.2616 19.2723 13.2228 19.1675 13.1521C19.0626 13.0814 18.981 12.9818 18.9324 12.8656C18.8839 12.7495 18.8706 12.6218 18.8943 12.4983C18.918 12.3748 18.9776 12.2608 19.0657 12.1704L19.7537 11.4841L19.7507 10.5067C19.7502 10.3804 19.7991 10.2588 19.8869 10.1674C19.9749 10.0761 20.0952 10.022 20.2224 10.0165C20.3524 10.0231 20.4768 10.0707 20.5777 10.1523L22.397 11.9648Z" fill="#FF9A15"/>
<path d="M17.7744 8.83147L16.7294 8.83464C15.4433 8.83694 14.2085 8.3347 13.2947 7.43755L12.7803 6.87219L12.7813 7.22407C12.7848 8.36468 13.2451 9.45718 14.061 10.2613C14.8768 11.0653 15.9814 11.5151 17.1318 11.5116L17.7627 11.5097L17.7744 8.83147Z" fill="#FFD836"/>
<path d="M12.7129 10.4497L15.5716 10.441L15.5802 13.2756L12.7129 10.4497Z" fill="#FFD836"/>
<path d="M8.30905 21.0976C8.84561 22.2252 9.79965 23.1044 10.973 23.5526C12.1464 24.0008 13.4488 23.9836 14.6097 23.5044C15.7706 23.0253 16.7008 22.1212 17.2069 20.9798C17.713 19.8384 17.7562 18.5476 17.3275 17.3756L8.30905 21.0976Z" fill="#FF9A15"/>
<path d="M3.48047 15.2476L5.71536 17.5476C6.00868 17.833 6.24218 18.1732 6.40233 18.5484C6.56261 18.9238 6.6463 19.3267 6.64861 19.7342L8.24557 19.7294L8.2422 18.6152C8.23842 17.9925 8.0266 17.3887 7.63983 16.8982C7.25305 16.4076 6.71321 16.0582 6.10468 15.9044L3.48047 15.2476Z" fill="#FFD836"/>
<path d="M7.69095 19.0664L7.51405 19.2428C7.44148 19.3123 7.34987 19.359 7.25064 19.377C7.15142 19.3951 7.04901 19.3838 6.95633 19.3444C6.86352 19.305 6.78462 19.2393 6.72935 19.1557C6.67407 19.0721 6.64486 18.9741 6.64549 18.874L6.62991 13.7328L7.67791 14.7657C8.24803 15.3379 8.56879 16.109 8.57123 16.9133C8.57367 17.7177 8.25759 18.4908 7.69095 19.0664Z" fill="#FFD836"/>
<path d="M17.9992 11.5089C18.2497 11.5082 18.4521 11.3063 18.4513 11.0579C18.4506 10.8096 18.2469 10.6089 17.9965 10.6097C17.746 10.6105 17.5436 10.8124 17.5443 11.0607C17.5451 11.309 17.7487 11.5097 17.9992 11.5089Z" fill="#202225"/>
</g>
<defs>
<clipPath id="clip0_1898_11535">
<rect x="0.84082" y="0.421875" width="29.1892" height="29.1892" rx="14.5946" transform="rotate(-0.173721 0.84082 0.421875)" fill="white"/>
</clipPath>
</defs>
</svg>
